<svg width="528" height="333" viewBox="0 0 528 333" fill="none" xmlns="http://www.w3.org/2000/svg">
<g clip-path="url(#clip0_266_895)">
<path fill-rule="evenodd" clip-rule="evenodd" d="M374.487 1.59375C349.479 1.59375 329.147 10.0419 311.414 19.2288C306.056 22.0048 301.078 24.7509 296.321 27.375C284.682 33.7956 274.366 39.4863 263.038 43.1008C256.384 45.2236 250.49 47.104 246.312 48.7416C242.378 50.2827 237.704 52.3949 234.387 56.0807C231.408 59.3918 229.878 63.1089 228.863 66.6644C227.942 69.892 227.154 74.2615 226.399 78.4536C207.984 180.58 248.251 277.332 346.582 314.979C356.246 318.68 363.365 321.406 374.536 321.406C385.709 321.406 392.827 318.68 402.491 314.979C500.819 277.33 541.046 180.576 522.626 78.4529C521.87 74.2604 521.082 69.8898 520.161 66.6621C519.145 63.1062 517.615 59.3886 514.635 56.0776C511.318 52.3917 506.644 50.2802 502.71 48.7395C498.531 47.1025 492.638 45.2232 485.984 43.1015C474.651 39.4869 464.326 33.795 452.678 27.3735C447.919 24.75 442.938 22.0037 437.58 19.2287C419.837 10.042 399.497 1.59375 374.487 1.59375ZM337.315 112.227V128.019C336.197 128.358 335.087 128.764 333.984 129.254C324.759 133.348 317.664 141.087 314.016 150.522C312.44 154.598 311.835 158.782 311.554 163.194C311.283 167.441 311.283 172.613 311.283 178.813V179.515C311.283 185.714 311.283 190.887 311.554 195.134C311.835 199.546 312.44 203.732 314.016 207.806C317.664 217.243 324.759 224.981 333.984 229.074C338.035 230.873 342.182 231.551 346.43 231.862C350.47 232.156 355.365 232.156 361.098 232.156H387.906C393.64 232.156 398.534 232.156 402.574 231.862C406.823 231.551 410.97 230.873 415.02 229.074C424.246 224.981 431.341 217.243 434.988 207.806C436.564 203.732 437.169 199.546 437.45 195.134C437.721 190.887 437.721 185.714 437.721 179.515V178.813C437.721 172.613 437.721 167.441 437.45 163.194C437.169 158.782 436.564 154.598 434.988 150.522C431.341 141.087 424.246 133.348 415.02 129.254C413.918 128.764 412.807 128.358 411.69 128.019V112.227C411.69 91.823 394.655 75.9688 374.502 75.9688C354.35 75.9688 337.315 91.823 337.315 112.227ZM374.502 98.2812C365.901 98.2812 359.627 104.904 359.627 112.227V126.172L361.098 126.172H387.906L389.377 126.172V112.227C389.377 104.904 383.103 98.2812 374.502 98.2812Z" fill="#0084FF"/>
<g filter="url(#filter0_b_266_895)">
<rect x="146" y="257" width="242" height="74" rx="20" fill="url(#paint0_linear_266_895)" fill-opacity="0.16"/>
<rect x="146.5" y="257.5" width="241" height="73" rx="19.5" stroke="url(#paint1_linear_266_895)"/>
<g filter="url(#filter1_d_266_895)">
<g clip-path="url(#clip1_266_895)">
<rect x="158" y="268" width="52" height="52" rx="16" fill="white" fill-opacity="0.07" shape-rendering="crispEdges"/>
<path d="M191.041 297.535C191.178 297.617 191.348 297.713 191.541 297.821C192.383 298.296 193.656 299.015 194.529 299.869C195.074 300.403 195.593 301.106 195.687 301.969C195.787 302.886 195.387 303.746 194.585 304.511C193.2 305.829 191.539 306.886 189.39 306.886H178.968C176.819 306.886 175.158 305.829 173.774 304.511C172.971 303.746 172.571 302.886 172.671 301.969C172.766 301.106 173.284 300.403 173.83 299.869C174.702 299.015 175.975 298.296 176.818 297.821C177.01 297.713 177.18 297.617 177.317 297.535C181.518 295.034 186.841 295.034 191.041 297.535Z" fill="#4770FF"/>
<path opacity="0.4" d="M177.977 287.682C177.977 284.255 180.754 281.478 184.181 281.478C187.608 281.478 190.386 284.255 190.386 287.682C190.386 291.109 187.608 293.887 184.181 293.887C180.754 293.887 177.977 291.109 177.977 287.682Z" fill="#4770FF"/>
<g filter="url(#filter2_f_266_895)">
<circle cx="184.469" cy="297.467" r="6.5" fill="#4871FE"/>
</g>
</g>
</g>
<path d="M237.915 277.818H239.148V284.56C239.148 285.256 238.984 285.877 238.656 286.424C238.331 286.968 237.872 287.397 237.278 287.712C236.685 288.023 235.989 288.179 235.19 288.179C234.392 288.179 233.696 288.023 233.102 287.712C232.509 287.397 232.048 286.968 231.72 286.424C231.395 285.877 231.233 285.256 231.233 284.56V277.818H232.466V284.46C232.466 284.957 232.575 285.4 232.794 285.788C233.013 286.172 233.324 286.475 233.729 286.697C234.136 286.916 234.624 287.026 235.19 287.026C235.757 287.026 236.244 286.916 236.652 286.697C237.06 286.475 237.371 286.172 237.587 285.788C237.805 285.4 237.915 284.957 237.915 284.46V277.818ZM246.86 282.074L245.806 282.372C245.74 282.196 245.642 282.026 245.513 281.86C245.387 281.691 245.214 281.552 244.996 281.442C244.777 281.333 244.497 281.278 244.155 281.278C243.688 281.278 243.299 281.386 242.987 281.602C242.679 281.814 242.525 282.084 242.525 282.412C242.525 282.704 242.631 282.934 242.843 283.103C243.055 283.272 243.386 283.413 243.837 283.526L244.971 283.804C245.653 283.97 246.162 284.223 246.497 284.565C246.832 284.903 246.999 285.339 246.999 285.872C246.999 286.31 246.873 286.701 246.621 287.045C246.373 287.39 246.025 287.662 245.577 287.861C245.13 288.06 244.609 288.159 244.016 288.159C243.237 288.159 242.593 287.99 242.082 287.652C241.572 287.314 241.249 286.82 241.113 286.17L242.226 285.892C242.332 286.303 242.533 286.611 242.828 286.817C243.126 287.022 243.516 287.125 243.996 287.125C244.543 287.125 244.977 287.009 245.299 286.777C245.624 286.542 245.786 286.26 245.786 285.932C245.786 285.667 245.693 285.445 245.508 285.266C245.322 285.083 245.037 284.947 244.653 284.858L243.38 284.56C242.68 284.394 242.167 284.137 241.839 283.789C241.514 283.438 241.351 282.999 241.351 282.472C241.351 282.041 241.472 281.66 241.714 281.328C241.96 280.997 242.293 280.737 242.714 280.548C243.138 280.359 243.618 280.264 244.155 280.264C244.911 280.264 245.504 280.43 245.935 280.761C246.369 281.093 246.678 281.53 246.86 282.074ZM251.967 288.159C251.231 288.159 250.596 287.997 250.063 287.672C249.533 287.344 249.123 286.886 248.835 286.3C248.55 285.71 248.407 285.024 248.407 284.241C248.407 283.459 248.55 282.77 248.835 282.173C249.123 281.573 249.524 281.106 250.038 280.771C250.555 280.433 251.158 280.264 251.848 280.264C252.245 280.264 252.638 280.33 253.026 280.463C253.414 280.596 253.767 280.811 254.085 281.109C254.403 281.404 254.657 281.795 254.846 282.283C255.034 282.77 255.129 283.37 255.129 284.082V284.58H249.243V283.565H253.936C253.936 283.134 253.85 282.75 253.677 282.412C253.508 282.074 253.266 281.807 252.951 281.612C252.64 281.416 252.272 281.318 251.848 281.318C251.38 281.318 250.976 281.434 250.635 281.666C250.297 281.895 250.036 282.193 249.854 282.561C249.672 282.929 249.581 283.323 249.581 283.744V284.42C249.581 284.997 249.68 285.486 249.879 285.887C250.081 286.285 250.361 286.588 250.719 286.797C251.077 287.002 251.493 287.105 251.967 287.105C252.275 287.105 252.554 287.062 252.802 286.976C253.054 286.886 253.271 286.754 253.453 286.578C253.636 286.399 253.777 286.177 253.876 285.912L255.01 286.23C254.89 286.615 254.69 286.953 254.408 287.244C254.126 287.533 253.778 287.758 253.364 287.92C252.95 288.08 252.484 288.159 251.967 288.159ZM256.914 288V280.364H258.047V281.517H258.127C258.266 281.139 258.518 280.833 258.882 280.597C259.247 280.362 259.658 280.244 260.115 280.244C260.202 280.244 260.309 280.246 260.439 280.249C260.568 280.253 260.666 280.258 260.732 280.264V281.457C260.692 281.447 260.601 281.433 260.458 281.413C260.319 281.389 260.172 281.378 260.016 281.378C259.645 281.378 259.313 281.456 259.022 281.612C258.733 281.764 258.505 281.976 258.336 282.248C258.17 282.516 258.087 282.823 258.087 283.168V288H256.914ZM267.233 283.406V288H266.06V280.364H267.194V281.557H267.293C267.472 281.169 267.744 280.857 268.108 280.622C268.473 280.384 268.944 280.264 269.52 280.264C270.037 280.264 270.49 280.37 270.878 280.582C271.265 280.791 271.567 281.109 271.782 281.537C271.998 281.961 272.106 282.498 272.106 283.148V288H270.932V283.227C270.932 282.627 270.777 282.16 270.465 281.825C270.153 281.487 269.726 281.318 269.182 281.318C268.808 281.318 268.473 281.399 268.178 281.562C267.886 281.724 267.656 281.961 267.487 282.273C267.318 282.584 267.233 282.962 267.233 283.406ZM276.497 288.179C276.013 288.179 275.574 288.088 275.179 287.906C274.785 287.72 274.472 287.453 274.24 287.105C274.008 286.754 273.892 286.33 273.892 285.832C273.892 285.395 273.978 285.04 274.15 284.768C274.323 284.493 274.553 284.278 274.841 284.122C275.13 283.966 275.448 283.85 275.796 283.774C276.147 283.695 276.5 283.632 276.855 283.585C277.319 283.526 277.695 283.481 277.983 283.451C278.275 283.418 278.487 283.363 278.62 283.287C278.756 283.211 278.824 283.078 278.824 282.889V282.849C278.824 282.359 278.689 281.978 278.421 281.706C278.156 281.434 277.753 281.298 277.213 281.298C276.653 281.298 276.213 281.421 275.895 281.666C275.577 281.911 275.353 282.173 275.224 282.452L274.11 282.054C274.309 281.59 274.574 281.229 274.906 280.97C275.241 280.708 275.605 280.526 276 280.423C276.397 280.317 276.788 280.264 277.173 280.264C277.418 280.264 277.7 280.294 278.018 280.354C278.34 280.41 278.65 280.528 278.948 280.707C279.249 280.886 279.5 281.156 279.699 281.517C279.897 281.878 279.997 282.362 279.997 282.969V288H278.824V286.966H278.764C278.684 287.132 278.552 287.309 278.366 287.498C278.181 287.687 277.934 287.848 277.625 287.98C277.317 288.113 276.941 288.179 276.497 288.179ZM276.676 287.125C277.14 287.125 277.531 287.034 277.849 286.852C278.171 286.669 278.413 286.434 278.575 286.146C278.741 285.857 278.824 285.554 278.824 285.236V284.162C278.774 284.222 278.664 284.276 278.495 284.326C278.33 284.372 278.137 284.414 277.919 284.45C277.703 284.483 277.493 284.513 277.287 284.54C277.085 284.563 276.921 284.583 276.795 284.599C276.49 284.639 276.205 284.704 275.94 284.793C275.678 284.879 275.466 285.01 275.304 285.186C275.145 285.358 275.065 285.594 275.065 285.892C275.065 286.3 275.216 286.608 275.517 286.817C275.822 287.022 276.208 287.125 276.676 287.125ZM282.138 288V280.364H283.272V281.557H283.371C283.53 281.149 283.787 280.833 284.142 280.607C284.497 280.379 284.922 280.264 285.42 280.264C285.923 280.264 286.343 280.379 286.677 280.607C287.015 280.833 287.279 281.149 287.468 281.557H287.547C287.743 281.162 288.036 280.849 288.427 280.617C288.818 280.382 289.287 280.264 289.834 280.264C290.517 280.264 291.076 280.478 291.51 280.906C291.944 281.33 292.161 281.991 292.161 282.889V288H290.988V282.889C290.988 282.326 290.834 281.923 290.525 281.681C290.217 281.439 289.854 281.318 289.437 281.318C288.9 281.318 288.484 281.481 288.189 281.805C287.894 282.127 287.746 282.535 287.746 283.028V288H286.553V282.77C286.553 282.336 286.412 281.986 286.131 281.721C285.849 281.452 285.486 281.318 285.042 281.318C284.737 281.318 284.452 281.399 284.187 281.562C283.925 281.724 283.713 281.95 283.55 282.238C283.391 282.523 283.312 282.853 283.312 283.227V288H282.138ZM297.508 288.159C296.772 288.159 296.137 287.997 295.604 287.672C295.074 287.344 294.664 286.886 294.376 286.3C294.091 285.71 293.948 285.024 293.948 284.241C293.948 283.459 294.091 282.77 294.376 282.173C294.664 281.573 295.065 281.106 295.579 280.771C296.096 280.433 296.699 280.264 297.389 280.264C297.786 280.264 298.179 280.33 298.567 280.463C298.955 280.596 299.308 280.811 299.626 281.109C299.944 281.404 300.198 281.795 300.387 282.283C300.575 282.77 300.67 283.37 300.67 284.082V284.58H294.784V283.565H299.477C299.477 283.134 299.391 282.75 299.218 282.412C299.049 282.074 298.807 281.807 298.492 281.612C298.181 281.416 297.813 281.318 297.389 281.318C296.921 281.318 296.517 281.434 296.176 281.666C295.838 281.895 295.577 282.193 295.395 282.561C295.213 282.929 295.122 283.323 295.122 283.744V284.42C295.122 284.997 295.221 285.486 295.42 285.887C295.622 286.285 295.902 286.588 296.26 286.797C296.618 287.002 297.034 287.105 297.508 287.105C297.816 287.105 298.095 287.062 298.343 286.976C298.595 286.886 298.812 286.754 298.994 286.578C299.177 286.399 299.318 286.177 299.417 285.912L300.551 286.23C300.431 286.615 300.231 286.953 299.949 287.244C299.667 287.533 299.319 287.758 298.905 287.92C298.491 288.08 298.025 288.159 297.508 288.159Z" fill="#AFB3CA"/>
<path d="M233.557 311L230.33 299.364H232.176L234.443 308.375H234.551L236.909 299.364H238.739L241.097 308.381H241.205L243.466 299.364H245.318L242.085 311H240.318L237.869 302.284H237.778L235.33 311H233.557ZM247.963 311.193C247.41 311.193 246.91 311.091 246.463 310.886C246.016 310.678 245.662 310.377 245.401 309.983C245.143 309.589 245.014 309.106 245.014 308.534C245.014 308.042 245.109 307.636 245.298 307.318C245.488 307 245.743 306.748 246.065 306.562C246.387 306.377 246.747 306.237 247.145 306.142C247.543 306.047 247.948 305.975 248.361 305.926C248.884 305.866 249.308 305.816 249.634 305.778C249.959 305.737 250.196 305.67 250.344 305.58C250.491 305.489 250.565 305.341 250.565 305.136V305.097C250.565 304.6 250.425 304.216 250.145 303.943C249.868 303.67 249.455 303.534 248.906 303.534C248.334 303.534 247.884 303.661 247.554 303.915C247.228 304.165 247.003 304.443 246.878 304.75L245.281 304.386C245.471 303.856 245.747 303.428 246.111 303.102C246.478 302.773 246.901 302.534 247.378 302.386C247.855 302.235 248.357 302.159 248.884 302.159C249.232 302.159 249.601 302.201 249.991 302.284C250.385 302.364 250.753 302.511 251.094 302.727C251.438 302.943 251.721 303.252 251.94 303.653C252.16 304.051 252.27 304.568 252.27 305.205V311H250.611V309.807H250.543C250.433 310.027 250.268 310.242 250.048 310.455C249.829 310.667 249.546 310.843 249.202 310.983C248.857 311.123 248.444 311.193 247.963 311.193ZM248.332 309.83C248.802 309.83 249.204 309.737 249.537 309.551C249.874 309.366 250.13 309.123 250.304 308.824C250.482 308.521 250.571 308.197 250.571 307.852V306.727C250.51 306.788 250.393 306.845 250.219 306.898C250.048 306.947 249.853 306.991 249.634 307.028C249.414 307.062 249.2 307.095 248.991 307.125C248.783 307.152 248.609 307.174 248.469 307.193C248.139 307.235 247.838 307.305 247.565 307.403C247.296 307.502 247.08 307.644 246.918 307.83C246.759 308.011 246.679 308.254 246.679 308.557C246.679 308.977 246.834 309.295 247.145 309.511C247.455 309.723 247.851 309.83 248.332 309.83ZM260.572 304.403L259.033 304.676C258.968 304.479 258.866 304.292 258.726 304.114C258.589 303.936 258.404 303.79 258.169 303.676C257.934 303.562 257.641 303.506 257.288 303.506C256.807 303.506 256.406 303.614 256.084 303.83C255.762 304.042 255.601 304.316 255.601 304.653C255.601 304.945 255.709 305.18 255.925 305.358C256.141 305.536 256.489 305.682 256.97 305.795L258.357 306.114C259.16 306.299 259.758 306.585 260.152 306.972C260.546 307.358 260.743 307.86 260.743 308.477C260.743 309 260.591 309.466 260.288 309.875C259.989 310.28 259.571 310.598 259.033 310.83C258.499 311.061 257.879 311.176 257.175 311.176C256.197 311.176 255.4 310.968 254.783 310.551C254.165 310.131 253.786 309.534 253.646 308.761L255.288 308.511C255.391 308.939 255.601 309.263 255.919 309.483C256.237 309.699 256.652 309.807 257.163 309.807C257.72 309.807 258.165 309.691 258.499 309.46C258.832 309.225 258.999 308.939 258.999 308.602C258.999 308.33 258.896 308.1 258.692 307.915C258.491 307.729 258.182 307.589 257.766 307.494L256.288 307.17C255.474 306.985 254.872 306.689 254.482 306.284C254.095 305.879 253.902 305.366 253.902 304.744C253.902 304.229 254.046 303.778 254.334 303.392C254.622 303.006 255.019 302.705 255.527 302.489C256.035 302.269 256.616 302.159 257.271 302.159C258.214 302.159 258.957 302.364 259.499 302.773C260.04 303.178 260.398 303.722 260.572 304.403ZM262.111 311V302.273H263.81V311H262.111ZM262.969 300.926C262.673 300.926 262.42 300.828 262.207 300.631C261.999 300.43 261.895 300.191 261.895 299.915C261.895 299.634 261.999 299.396 262.207 299.199C262.42 298.998 262.673 298.898 262.969 298.898C263.264 298.898 263.516 298.998 263.724 299.199C263.937 299.396 264.043 299.634 264.043 299.915C264.043 300.191 263.937 300.43 263.724 300.631C263.516 300.828 263.264 300.926 262.969 300.926ZM271.124 307.381V302.273H272.828V311H271.158V309.489H271.067C270.866 309.955 270.544 310.343 270.101 310.653C269.661 310.96 269.114 311.114 268.459 311.114C267.898 311.114 267.402 310.991 266.97 310.744C266.542 310.494 266.205 310.125 265.959 309.636C265.716 309.148 265.595 308.544 265.595 307.824V302.273H267.294V307.619C267.294 308.214 267.459 308.687 267.788 309.04C268.118 309.392 268.546 309.568 269.072 309.568C269.391 309.568 269.707 309.489 270.021 309.33C270.339 309.17 270.603 308.93 270.811 308.608C271.023 308.286 271.127 307.877 271.124 307.381ZM278.482 299.364H280.612L284.317 308.409H284.453L288.158 299.364H290.288V311H288.618V302.58H288.51L285.078 310.983H283.692L280.26 302.574H280.152V311H278.482V299.364ZM294.744 311.193C294.191 311.193 293.691 311.091 293.244 310.886C292.797 310.678 292.443 310.377 292.182 309.983C291.924 309.589 291.795 309.106 291.795 308.534C291.795 308.042 291.89 307.636 292.08 307.318C292.269 307 292.525 306.748 292.847 306.562C293.169 306.377 293.528 306.237 293.926 306.142C294.324 306.047 294.729 305.975 295.142 305.926C295.665 305.866 296.089 305.816 296.415 305.778C296.741 305.737 296.977 305.67 297.125 305.58C297.273 305.489 297.347 305.341 297.347 305.136V305.097C297.347 304.6 297.206 304.216 296.926 303.943C296.65 303.67 296.237 303.534 295.688 303.534C295.116 303.534 294.665 303.661 294.335 303.915C294.009 304.165 293.784 304.443 293.659 304.75L292.062 304.386C292.252 303.856 292.528 303.428 292.892 303.102C293.259 302.773 293.682 302.534 294.159 302.386C294.636 302.235 295.138 302.159 295.665 302.159C296.013 302.159 296.383 302.201 296.773 302.284C297.167 302.364 297.534 302.511 297.875 302.727C298.22 302.943 298.502 303.252 298.722 303.653C298.941 304.051 299.051 304.568 299.051 305.205V311H297.392V309.807H297.324C297.214 310.027 297.049 310.242 296.83 310.455C296.61 310.667 296.328 310.843 295.983 310.983C295.638 311.123 295.225 311.193 294.744 311.193ZM295.114 309.83C295.583 309.83 295.985 309.737 296.318 309.551C296.655 309.366 296.911 309.123 297.085 308.824C297.263 308.521 297.352 308.197 297.352 307.852V306.727C297.292 306.788 297.174 306.845 297 306.898C296.83 306.947 296.634 306.991 296.415 307.028C296.195 307.062 295.981 307.095 295.773 307.125C295.564 307.152 295.39 307.174 295.25 307.193C294.92 307.235 294.619 307.305 294.347 307.403C294.078 307.502 293.862 307.644 293.699 307.83C293.54 308.011 293.46 308.254 293.46 308.557C293.46 308.977 293.616 309.295 293.926 309.511C294.237 309.723 294.633 309.83 295.114 309.83ZM302.513 299.364V311H300.814V299.364H302.513ZM308.06 311.176C307.2 311.176 306.459 310.992 305.838 310.625C305.221 310.254 304.743 309.733 304.406 309.062C304.073 308.388 303.906 307.598 303.906 306.693C303.906 305.799 304.073 305.011 304.406 304.33C304.743 303.648 305.213 303.116 305.815 302.733C306.421 302.35 307.13 302.159 307.94 302.159C308.433 302.159 308.91 302.241 309.372 302.403C309.834 302.566 310.249 302.822 310.616 303.17C310.984 303.519 311.274 303.972 311.486 304.528C311.698 305.081 311.804 305.754 311.804 306.545V307.148H304.866V305.875H310.139C310.139 305.428 310.048 305.032 309.866 304.688C309.685 304.339 309.429 304.064 309.099 303.864C308.774 303.663 308.391 303.562 307.952 303.562C307.474 303.562 307.058 303.68 306.702 303.915C306.349 304.146 306.077 304.449 305.884 304.824C305.694 305.195 305.599 305.598 305.599 306.034V307.028C305.599 307.612 305.702 308.108 305.906 308.517C306.115 308.926 306.404 309.239 306.776 309.455C307.147 309.667 307.58 309.773 308.077 309.773C308.399 309.773 308.692 309.727 308.957 309.636C309.223 309.542 309.452 309.402 309.645 309.216C309.838 309.03 309.986 308.801 310.088 308.528L311.696 308.818C311.567 309.292 311.336 309.706 311.003 310.062C310.673 310.415 310.259 310.689 309.759 310.886C309.262 311.08 308.696 311.176 308.06 311.176ZM316.95 311.176C316.09 311.176 315.35 310.992 314.729 310.625C314.111 310.254 313.634 309.733 313.297 309.062C312.964 308.388 312.797 307.598 312.797 306.693C312.797 305.799 312.964 305.011 313.297 304.33C313.634 303.648 314.104 303.116 314.706 302.733C315.312 302.35 316.02 302.159 316.831 302.159C317.323 302.159 317.801 302.241 318.263 302.403C318.725 302.566 319.14 302.822 319.507 303.17C319.875 303.519 320.164 303.972 320.376 304.528C320.589 305.081 320.695 305.754 320.695 306.545V307.148H313.757V305.875H319.03C319.03 305.428 318.939 305.032 318.757 304.688C318.575 304.339 318.32 304.064 317.99 303.864C317.664 303.663 317.282 303.562 316.842 303.562C316.365 303.562 315.948 303.68 315.592 303.915C315.24 304.146 314.967 304.449 314.774 304.824C314.585 305.195 314.49 305.598 314.49 306.034V307.028C314.49 307.612 314.592 308.108 314.797 308.517C315.005 308.926 315.295 309.239 315.666 309.455C316.037 309.667 316.471 309.773 316.967 309.773C317.289 309.773 317.583 309.727 317.848 309.636C318.113 309.542 318.342 309.402 318.536 309.216C318.729 309.03 318.876 308.801 318.979 308.528L320.587 308.818C320.458 309.292 320.227 309.706 319.893 310.062C319.564 310.415 319.149 310.689 318.649 310.886C318.153 311.08 317.587 311.176 316.95 311.176ZM323.642 308.04L323.631 305.966H323.926L327.403 302.273H329.438L325.472 306.477H325.205L323.642 308.04ZM322.08 311V299.364H323.778V311H322.08ZM327.591 311L324.466 306.852L325.636 305.665L329.676 311H327.591Z" fill="#AFB3CA"/>
</g>
<g filter="url(#filter3_b_266_895)">
<rect x="2" y="137" width="294" height="74" rx="20" fill="url(#paint2_linear_266_895)" fill-opacity="0.16"/>
<rect x="2.5" y="137.5" width="293" height="73" rx="19.5" stroke="url(#paint3_linear_266_895)"/>
<g filter="url(#filter4_d_266_895)">
<g clip-path="url(#clip2_266_895)">
<rect x="14" y="148" width="52" height="52" rx="16" fill="white" fill-opacity="0.07" shape-rendering="crispEdges"/>
<path d="M27.4973 172.6C27.5343 170.868 27.5648 169.437 27.7664 168.277L30.4239 169.645C30.3049 169.603 30.2135 169.599 30.131 169.645C29.9575 169.741 29.9461 169.98 29.9232 170.459C29.8924 171.105 29.8757 171.854 29.8568 172.739C29.8323 173.885 29.8323 174.478 29.8568 175.624C29.8962 177.467 29.926 178.719 30.0935 179.682C30.2512 180.589 30.5143 181.128 30.9644 181.579C31.4098 182.026 31.956 182.293 32.8935 182.456C33.8841 182.629 35.1761 182.664 37.0705 182.712C39.3423 182.769 41.02 182.769 43.2918 182.712C45.1861 182.664 46.4782 182.629 47.4688 182.456C48.4062 182.293 48.9524 182.026 49.3979 181.579C49.8479 181.128 50.1111 180.589 50.2688 179.682C50.4362 178.719 50.4661 177.467 50.5055 175.624C50.5299 174.478 50.5299 173.885 50.5055 172.739C50.4866 171.854 50.4698 171.105 50.4391 170.459C50.4161 169.98 50.4047 169.74 50.2312 169.645C50.1486 169.599 50.057 169.603 49.9376 169.645L52.5958 168.277C52.7974 169.437 52.828 170.868 52.8649 172.6L52.8667 172.689C52.8919 173.868 52.8919 174.495 52.8667 175.674L52.8649 175.763C52.828 177.495 52.7975 178.926 52.5958 180.086C52.381 181.321 51.9569 182.356 51.0711 183.244C50.1807 184.137 49.1295 184.562 47.874 184.78C46.691 184.986 45.2233 185.023 43.4395 185.068L43.3511 185.07C41.0397 185.128 39.3225 185.128 37.0111 185.07L36.9227 185.068C35.1389 185.023 33.6712 184.986 32.4883 184.78C31.2327 184.562 30.1815 184.137 29.2911 183.244C28.4054 182.356 27.9813 181.321 27.7664 180.086C27.5648 178.926 27.5343 177.495 27.4974 175.763L27.4955 175.674C27.4703 174.495 27.4703 173.868 27.4954 172.689L27.4973 172.6Z" fill="#F9A876"/>
<path opacity="0.4" d="M37.0103 163.293C39.3217 163.236 41.039 163.235 43.3503 163.293L43.4388 163.296C45.2225 163.34 46.6902 163.377 47.8732 163.583C48.3108 163.659 48.7235 163.76 49.1134 163.898C49.2169 163.922 49.3164 163.96 49.4091 164.011C50.0188 164.264 50.57 164.618 51.0704 165.119C51.956 166.007 52.3802 167.042 52.595 168.278L49.9368 169.645C49.8055 169.692 49.6405 169.785 49.4169 169.912L44.411 172.748C42.8751 173.619 41.576 174.182 40.18 174.182C38.7841 174.182 37.4851 173.619 35.9492 172.748L30.9438 169.912C30.7198 169.785 30.5546 169.692 30.4231 169.645L27.7656 168.278C27.9805 167.042 28.4046 166.007 29.2903 165.119C30.1807 164.227 31.2319 163.801 32.4874 163.583C33.6704 163.377 35.1381 163.34 36.9219 163.296L37.0103 163.293Z" fill="#F9A876"/>
<g filter="url(#filter5_f_266_895)">
<circle cx="39.4688" cy="176.467" r="6.5" fill="#F9A876"/>
</g>
</g>
</g>
<path d="M87.233 168V157.818H93.3778V158.912H88.4659V162.352H93.0597V163.446H88.4659V166.906H93.4574V168H87.233ZM95.4411 168V160.364H96.5746V161.557H96.674C96.8331 161.149 97.09 160.833 97.4446 160.607C97.7992 160.379 98.2251 160.264 98.7223 160.264C99.2261 160.264 99.6454 160.379 99.9801 160.607C100.318 160.833 100.582 161.149 100.771 161.557H100.85C101.046 161.162 101.339 160.849 101.73 160.617C102.121 160.382 102.59 160.264 103.137 160.264C103.82 160.264 104.378 160.478 104.812 160.906C105.247 161.33 105.464 161.991 105.464 162.889V168H104.29V162.889C104.29 162.326 104.136 161.923 103.828 161.681C103.52 161.439 103.157 161.318 102.739 161.318C102.202 161.318 101.786 161.481 101.491 161.805C101.196 162.127 101.049 162.535 101.049 163.028V168H99.8558V162.77C99.8558 162.336 99.715 161.986 99.4332 161.721C99.1515 161.452 98.7886 161.318 98.3445 161.318C98.0395 161.318 97.7545 161.399 97.4893 161.562C97.2275 161.724 97.0154 161.95 96.853 162.238C96.6939 162.523 96.6143 162.853 96.6143 163.227V168H95.4411ZM109.856 168.179C109.372 168.179 108.933 168.088 108.539 167.906C108.144 167.72 107.831 167.453 107.599 167.105C107.367 166.754 107.251 166.33 107.251 165.832C107.251 165.395 107.337 165.04 107.51 164.768C107.682 164.493 107.912 164.278 108.201 164.122C108.489 163.966 108.807 163.85 109.155 163.774C109.507 163.695 109.859 163.632 110.214 163.585C110.678 163.526 111.054 163.481 111.343 163.451C111.634 163.418 111.846 163.363 111.979 163.287C112.115 163.211 112.183 163.078 112.183 162.889V162.849C112.183 162.359 112.049 161.978 111.78 161.706C111.515 161.434 111.112 161.298 110.572 161.298C110.012 161.298 109.573 161.421 109.255 161.666C108.936 161.911 108.713 162.173 108.583 162.452L107.47 162.054C107.669 161.59 107.934 161.229 108.265 160.97C108.6 160.708 108.965 160.526 109.359 160.423C109.757 160.317 110.148 160.264 110.532 160.264C110.778 160.264 111.059 160.294 111.377 160.354C111.699 160.41 112.009 160.528 112.307 160.707C112.609 160.886 112.859 161.156 113.058 161.517C113.257 161.878 113.356 162.362 113.356 162.969V168H112.183V166.966H112.123C112.044 167.132 111.911 167.309 111.725 167.498C111.54 167.687 111.293 167.848 110.985 167.98C110.676 168.113 110.3 168.179 109.856 168.179ZM110.035 167.125C110.499 167.125 110.89 167.034 111.208 166.852C111.53 166.669 111.772 166.434 111.934 166.146C112.1 165.857 112.183 165.554 112.183 165.236V164.162C112.133 164.222 112.024 164.276 111.855 164.326C111.689 164.372 111.497 164.414 111.278 164.45C111.063 164.483 110.852 164.513 110.647 164.54C110.444 164.563 110.28 164.583 110.154 164.599C109.85 164.639 109.565 164.704 109.299 164.793C109.038 164.879 108.825 165.01 108.663 165.186C108.504 165.358 108.424 165.594 108.424 165.892C108.424 166.3 108.575 166.608 108.877 166.817C109.182 167.022 109.568 167.125 110.035 167.125ZM115.498 168V160.364H116.671V168H115.498ZM116.094 159.091C115.866 159.091 115.668 159.013 115.503 158.857C115.34 158.701 115.259 158.514 115.259 158.295C115.259 158.077 115.34 157.889 115.503 157.734C115.668 157.578 115.866 157.5 116.094 157.5C116.323 157.5 116.519 157.578 116.681 157.734C116.847 157.889 116.93 158.077 116.93 158.295C116.93 158.514 116.847 158.701 116.681 158.857C116.519 159.013 116.323 159.091 116.094 159.091ZM119.993 157.818V168H118.82V157.818H119.993ZM128.327 168.179C127.843 168.179 127.404 168.088 127.009 167.906C126.615 167.72 126.302 167.453 126.07 167.105C125.838 166.754 125.722 166.33 125.722 165.832C125.722 165.395 125.808 165.04 125.98 164.768C126.153 164.493 126.383 164.278 126.671 164.122C126.96 163.966 127.278 163.85 127.626 163.774C127.977 163.695 128.33 163.632 128.685 163.585C129.149 163.526 129.525 163.481 129.813 163.451C130.105 163.418 130.317 163.363 130.45 163.287C130.586 163.211 130.654 163.078 130.654 162.889V162.849C130.654 162.359 130.519 161.978 130.251 161.706C129.986 161.434 129.583 161.298 129.043 161.298C128.483 161.298 128.044 161.421 127.725 161.666C127.407 161.911 127.183 162.173 127.054 162.452L125.941 162.054C126.139 161.59 126.405 161.229 126.736 160.97C127.071 160.708 127.435 160.526 127.83 160.423C128.227 160.317 128.619 160.264 129.003 160.264C129.248 160.264 129.53 160.294 129.848 160.354C130.17 160.41 130.48 160.528 130.778 160.707C131.079 160.886 131.33 161.156 131.529 161.517C131.727 161.878 131.827 162.362 131.827 162.969V168H130.654V166.966H130.594C130.514 167.132 130.382 167.309 130.196 167.498C130.011 167.687 129.764 167.848 129.455 167.98C129.147 168.113 128.771 168.179 128.327 168.179ZM128.506 167.125C128.97 167.125 129.361 167.034 129.679 166.852C130.001 166.669 130.243 166.434 130.405 166.146C130.571 165.857 130.654 165.554 130.654 165.236V164.162C130.604 164.222 130.494 164.276 130.325 164.326C130.16 164.372 129.968 164.414 129.749 164.45C129.533 164.483 129.323 164.513 129.117 164.54C128.915 164.563 128.751 164.583 128.625 164.599C128.32 164.639 128.035 164.704 127.77 164.793C127.508 164.879 127.296 165.01 127.134 165.186C126.975 165.358 126.895 165.594 126.895 165.892C126.895 166.3 127.046 166.608 127.347 166.817C127.652 167.022 128.039 167.125 128.506 167.125ZM136.852 168.159C136.216 168.159 135.654 167.998 135.167 167.677C134.679 167.352 134.298 166.895 134.023 166.305C133.748 165.711 133.61 165.01 133.61 164.202C133.61 163.4 133.748 162.704 134.023 162.114C134.298 161.524 134.681 161.068 135.172 160.746C135.662 160.425 136.229 160.264 136.872 160.264C137.369 160.264 137.762 160.347 138.05 160.513C138.342 160.675 138.564 160.861 138.716 161.07C138.872 161.275 138.993 161.444 139.079 161.577H139.179V157.818H140.352V168H139.218V166.827H139.079C138.993 166.966 138.87 167.142 138.711 167.354C138.552 167.562 138.325 167.75 138.03 167.915C137.735 168.078 137.342 168.159 136.852 168.159ZM137.011 167.105C137.482 167.105 137.879 166.982 138.204 166.737C138.529 166.489 138.776 166.146 138.945 165.708C139.114 165.267 139.199 164.759 139.199 164.182C139.199 163.612 139.116 163.113 138.95 162.685C138.784 162.254 138.539 161.92 138.214 161.681C137.889 161.439 137.488 161.318 137.011 161.318C136.514 161.318 136.1 161.446 135.768 161.701C135.44 161.953 135.193 162.296 135.027 162.73C134.865 163.161 134.784 163.645 134.784 164.182C134.784 164.725 134.867 165.219 135.032 165.663C135.201 166.104 135.45 166.455 135.778 166.717C136.109 166.976 136.52 167.105 137.011 167.105ZM145.547 168.159C144.911 168.159 144.349 167.998 143.862 167.677C143.375 167.352 142.993 166.895 142.718 166.305C142.443 165.711 142.306 165.01 142.306 164.202C142.306 163.4 142.443 162.704 142.718 162.114C142.993 161.524 143.376 161.068 143.867 160.746C144.357 160.425 144.924 160.264 145.567 160.264C146.064 160.264 146.457 160.347 146.745 160.513C147.037 160.675 147.259 160.861 147.412 161.07C147.567 161.275 147.688 161.444 147.775 161.577H147.874V157.818H149.047V168H147.914V166.827H147.775C147.688 166.966 147.566 167.142 147.407 167.354C147.248 167.562 147.02 167.75 146.725 167.915C146.431 168.078 146.038 168.159 145.547 168.159ZM145.706 167.105C146.177 167.105 146.575 166.982 146.9 166.737C147.224 166.489 147.471 166.146 147.64 165.708C147.809 165.267 147.894 164.759 147.894 164.182C147.894 163.612 147.811 163.113 147.645 162.685C147.48 162.254 147.234 161.92 146.909 161.681C146.585 161.439 146.184 161.318 145.706 161.318C145.209 161.318 144.795 161.446 144.463 161.701C144.135 161.953 143.888 162.296 143.723 162.73C143.56 163.161 143.479 163.645 143.479 164.182C143.479 164.725 143.562 165.219 143.728 165.663C143.897 166.104 144.145 166.455 144.473 166.717C144.805 166.976 145.216 167.105 145.706 167.105ZM151.359 168V160.364H152.493V161.517H152.572C152.711 161.139 152.963 160.833 153.328 160.597C153.692 160.362 154.103 160.244 154.561 160.244C154.647 160.244 154.755 160.246 154.884 160.249C155.013 160.253 155.111 160.258 155.177 160.264V161.457C155.137 161.447 155.046 161.433 154.904 161.413C154.765 161.389 154.617 161.378 154.461 161.378C154.09 161.378 153.759 161.456 153.467 161.612C153.179 161.764 152.95 161.976 152.781 162.248C152.615 162.516 152.532 162.823 152.532 163.168V168H151.359ZM159.537 168.159C158.801 168.159 158.167 167.997 157.633 167.672C157.103 167.344 156.694 166.886 156.405 166.3C156.12 165.71 155.978 165.024 155.978 164.241C155.978 163.459 156.12 162.77 156.405 162.173C156.694 161.573 157.095 161.106 157.608 160.771C158.125 160.433 158.729 160.264 159.418 160.264C159.816 160.264 160.208 160.33 160.596 160.463C160.984 160.596 161.337 160.811 161.655 161.109C161.973 161.404 162.227 161.795 162.416 162.283C162.605 162.77 162.699 163.37 162.699 164.082V164.58H156.813V163.565H161.506C161.506 163.134 161.42 162.75 161.248 162.412C161.078 162.074 160.837 161.807 160.522 161.612C160.21 161.416 159.842 161.318 159.418 161.318C158.951 161.318 158.546 161.434 158.205 161.666C157.867 161.895 157.607 162.193 157.424 162.561C157.242 162.929 157.151 163.323 157.151 163.744V164.42C157.151 164.997 157.25 165.486 157.449 165.887C157.651 166.285 157.931 166.588 158.289 166.797C158.647 167.002 159.063 167.105 159.537 167.105C159.846 167.105 160.124 167.062 160.373 166.976C160.624 166.886 160.842 166.754 161.024 166.578C161.206 166.399 161.347 166.177 161.446 165.912L162.58 166.23C162.461 166.615 162.26 166.953 161.978 167.244C161.697 167.533 161.349 167.758 160.934 167.92C160.52 168.08 160.054 168.159 159.537 168.159ZM169.893 162.074L168.839 162.372C168.773 162.196 168.675 162.026 168.546 161.86C168.42 161.691 168.248 161.552 168.029 161.442C167.81 161.333 167.53 161.278 167.189 161.278C166.721 161.278 166.332 161.386 166.02 161.602C165.712 161.814 165.558 162.084 165.558 162.412C165.558 162.704 165.664 162.934 165.876 163.103C166.088 163.272 166.42 163.413 166.87 163.526L168.004 163.804C168.687 163.97 169.195 164.223 169.53 164.565C169.865 164.903 170.032 165.339 170.032 165.872C170.032 166.31 169.906 166.701 169.654 167.045C169.406 167.39 169.058 167.662 168.61 167.861C168.163 168.06 167.643 168.159 167.049 168.159C166.27 168.159 165.626 167.99 165.115 167.652C164.605 167.314 164.282 166.82 164.146 166.17L165.26 165.892C165.366 166.303 165.566 166.611 165.861 166.817C166.159 167.022 166.549 167.125 167.029 167.125C167.576 167.125 168.011 167.009 168.332 166.777C168.657 166.542 168.819 166.26 168.819 165.932C168.819 165.667 168.726 165.445 168.541 165.266C168.355 165.083 168.07 164.947 167.686 164.858L166.413 164.56C165.714 164.394 165.2 164.137 164.872 163.789C164.547 163.438 164.385 162.999 164.385 162.472C164.385 162.041 164.506 161.66 164.748 161.328C164.993 160.997 165.326 160.737 165.747 160.548C166.171 160.359 166.652 160.264 167.189 160.264C167.944 160.264 168.538 160.43 168.968 160.761C169.403 161.093 169.711 161.53 169.893 162.074ZM177.208 162.074L176.154 162.372C176.087 162.196 175.99 162.026 175.86 161.86C175.734 161.691 175.562 161.552 175.343 161.442C175.124 161.333 174.844 161.278 174.503 161.278C174.036 161.278 173.646 161.386 173.335 161.602C173.026 161.814 172.872 162.084 172.872 162.412C172.872 162.704 172.978 162.934 173.191 163.103C173.403 163.272 173.734 163.413 174.185 163.526L175.318 163.804C176.001 163.97 176.51 164.223 176.845 164.565C177.179 164.903 177.347 165.339 177.347 165.872C177.347 166.31 177.221 166.701 176.969 167.045C176.72 167.39 176.372 167.662 175.925 167.861C175.477 168.06 174.957 168.159 174.364 168.159C173.585 168.159 172.94 167.99 172.43 167.652C171.919 167.314 171.596 166.82 171.46 166.17L172.574 165.892C172.68 166.303 172.881 166.611 173.176 166.817C173.474 167.022 173.863 167.125 174.344 167.125C174.891 167.125 175.325 167.009 175.646 166.777C175.971 166.542 176.134 166.26 176.134 165.932C176.134 165.667 176.041 165.445 175.855 165.266C175.67 165.083 175.385 164.947 175 164.858L173.727 164.56C173.028 164.394 172.514 164.137 172.186 163.789C171.861 163.438 171.699 162.999 171.699 162.472C171.699 162.041 171.82 161.66 172.062 161.328C172.307 160.997 172.64 160.737 173.061 160.548C173.485 160.359 173.966 160.264 174.503 160.264C175.259 160.264 175.852 160.43 176.283 160.761C176.717 161.093 177.025 161.53 177.208 162.074Z" fill="#AFB3CA"/>
<path d="M89.0341 191L86.4659 182.273H88.2216L89.9318 188.682H90.017L91.733 182.273H93.4886L95.1932 188.653H95.2784L96.9773 182.273H98.733L96.1705 191H94.4375L92.6648 184.699H92.5341L90.7614 191H89.0341ZM102.385 191.193C101.832 191.193 101.332 191.091 100.885 190.886C100.438 190.678 100.084 190.377 99.8224 189.983C99.5649 189.589 99.4361 189.106 99.4361 188.534C99.4361 188.042 99.5308 187.636 99.7202 187.318C99.9096 187 100.165 186.748 100.487 186.562C100.809 186.377 101.169 186.237 101.567 186.142C101.964 186.047 102.37 185.975 102.783 185.926C103.305 185.866 103.73 185.816 104.055 185.778C104.381 185.737 104.618 185.67 104.766 185.58C104.913 185.489 104.987 185.341 104.987 185.136V185.097C104.987 184.6 104.847 184.216 104.567 183.943C104.29 183.67 103.877 183.534 103.328 183.534C102.756 183.534 102.305 183.661 101.976 183.915C101.65 184.165 101.425 184.443 101.3 184.75L99.7031 184.386C99.8925 183.856 100.169 183.428 100.533 183.102C100.9 182.773 101.322 182.534 101.8 182.386C102.277 182.235 102.779 182.159 103.305 182.159C103.654 182.159 104.023 182.201 104.413 182.284C104.807 182.364 105.175 182.511 105.516 182.727C105.86 182.943 106.143 183.252 106.362 183.653C106.582 184.051 106.692 184.568 106.692 185.205V191H105.033V189.807H104.964C104.855 190.027 104.69 190.242 104.47 190.455C104.25 190.667 103.968 190.843 103.624 190.983C103.279 191.123 102.866 191.193 102.385 191.193ZM102.754 189.83C103.224 189.83 103.625 189.737 103.959 189.551C104.296 189.366 104.552 189.123 104.726 188.824C104.904 188.521 104.993 188.197 104.993 187.852V186.727C104.932 186.788 104.815 186.845 104.641 186.898C104.47 186.947 104.275 186.991 104.055 187.028C103.836 187.062 103.622 187.095 103.413 187.125C103.205 187.152 103.031 187.174 102.891 187.193C102.561 187.235 102.26 187.305 101.987 187.403C101.718 187.502 101.502 187.644 101.339 187.83C101.18 188.011 101.101 188.254 101.101 188.557C101.101 188.977 101.256 189.295 101.567 189.511C101.877 189.723 102.273 189.83 102.754 189.83ZM114.994 184.403L113.455 184.676C113.39 184.479 113.288 184.292 113.148 184.114C113.011 183.936 112.826 183.79 112.591 183.676C112.356 183.562 112.063 183.506 111.71 183.506C111.229 183.506 110.828 183.614 110.506 183.83C110.184 184.042 110.023 184.316 110.023 184.653C110.023 184.945 110.131 185.18 110.347 185.358C110.563 185.536 110.911 185.682 111.392 185.795L112.778 186.114C113.581 186.299 114.18 186.585 114.574 186.972C114.968 187.358 115.165 187.86 115.165 188.477C115.165 189 115.013 189.466 114.71 189.875C114.411 190.28 113.992 190.598 113.455 190.83C112.92 191.061 112.301 191.176 111.597 191.176C110.619 191.176 109.822 190.968 109.205 190.551C108.587 190.131 108.208 189.534 108.068 188.761L109.71 188.511C109.813 188.939 110.023 189.263 110.341 189.483C110.659 189.699 111.074 189.807 111.585 189.807C112.142 189.807 112.587 189.691 112.92 189.46C113.254 189.225 113.42 188.939 113.42 188.602C113.42 188.33 113.318 188.1 113.114 187.915C112.913 187.729 112.604 187.589 112.188 187.494L110.71 187.17C109.896 186.985 109.294 186.689 108.903 186.284C108.517 185.879 108.324 185.366 108.324 184.744C108.324 184.229 108.468 183.778 108.756 183.392C109.044 183.006 109.441 182.705 109.949 182.489C110.456 182.269 111.038 182.159 111.693 182.159C112.636 182.159 113.379 182.364 113.92 182.773C114.462 183.178 114.82 183.722 114.994 184.403ZM116.533 191V182.273H118.232V191H116.533ZM117.391 180.926C117.095 180.926 116.841 180.828 116.629 180.631C116.421 180.43 116.317 180.191 116.317 179.915C116.317 179.634 116.421 179.396 116.629 179.199C116.841 178.998 117.095 178.898 117.391 178.898C117.686 178.898 117.938 178.998 118.146 179.199C118.358 179.396 118.464 179.634 118.464 179.915C118.464 180.191 118.358 180.43 118.146 180.631C117.938 180.828 117.686 180.926 117.391 180.926ZM125.545 187.381V182.273H127.25V191H125.58V189.489H125.489C125.288 189.955 124.966 190.343 124.523 190.653C124.083 190.96 123.536 191.114 122.881 191.114C122.32 191.114 121.824 190.991 121.392 190.744C120.964 190.494 120.627 190.125 120.381 189.636C120.138 189.148 120.017 188.544 120.017 187.824V182.273H121.716V187.619C121.716 188.214 121.881 188.687 122.21 189.04C122.54 189.392 122.968 189.568 123.494 189.568C123.813 189.568 124.129 189.489 124.443 189.33C124.761 189.17 125.025 188.93 125.233 188.608C125.445 188.286 125.549 187.877 125.545 187.381ZM129.033 191V182.273H130.663V183.693H130.771C130.953 183.212 131.25 182.837 131.663 182.568C132.076 182.295 132.571 182.159 133.146 182.159C133.73 182.159 134.218 182.295 134.612 182.568C135.01 182.841 135.304 183.216 135.493 183.693H135.584C135.792 183.227 136.124 182.856 136.578 182.58C137.033 182.299 137.574 182.159 138.203 182.159C138.995 182.159 139.641 182.407 140.141 182.903C140.644 183.4 140.896 184.148 140.896 185.148V191H139.197V185.307C139.197 184.716 139.036 184.288 138.714 184.023C138.393 183.758 138.008 183.625 137.561 183.625C137.008 183.625 136.578 183.795 136.271 184.136C135.964 184.473 135.811 184.907 135.811 185.438V191H134.118V185.199C134.118 184.725 133.97 184.345 133.675 184.057C133.379 183.769 132.995 183.625 132.521 183.625C132.199 183.625 131.902 183.71 131.629 183.881C131.36 184.047 131.143 184.28 130.976 184.58C130.813 184.879 130.732 185.225 130.732 185.619V191H129.033ZM145.213 191.193C144.66 191.193 144.16 191.091 143.713 190.886C143.266 190.678 142.912 190.377 142.651 189.983C142.393 189.589 142.264 189.106 142.264 188.534C142.264 188.042 142.359 187.636 142.548 187.318C142.738 187 142.993 186.748 143.315 186.562C143.637 186.377 143.997 186.237 144.395 186.142C144.793 186.047 145.198 185.975 145.611 185.926C146.134 185.866 146.558 185.816 146.884 185.778C147.209 185.737 147.446 185.67 147.594 185.58C147.741 185.489 147.815 185.341 147.815 185.136V185.097C147.815 184.6 147.675 184.216 147.395 183.943C147.118 183.67 146.705 183.534 146.156 183.534C145.584 183.534 145.134 183.661 144.804 183.915C144.478 184.165 144.253 184.443 144.128 184.75L142.531 184.386C142.721 183.856 142.997 183.428 143.361 183.102C143.728 182.773 144.151 182.534 144.628 182.386C145.105 182.235 145.607 182.159 146.134 182.159C146.482 182.159 146.851 182.201 147.241 182.284C147.635 182.364 148.003 182.511 148.344 182.727C148.688 182.943 148.971 183.252 149.19 183.653C149.41 184.051 149.52 184.568 149.52 185.205V191H147.861V189.807H147.793C147.683 190.027 147.518 190.242 147.298 190.455C147.079 190.667 146.796 190.843 146.452 190.983C146.107 191.123 145.694 191.193 145.213 191.193ZM145.582 189.83C146.052 189.83 146.454 189.737 146.787 189.551C147.124 189.366 147.38 189.123 147.554 188.824C147.732 188.521 147.821 188.197 147.821 187.852V186.727C147.76 186.788 147.643 186.845 147.469 186.898C147.298 186.947 147.103 186.991 146.884 187.028C146.664 187.062 146.45 187.095 146.241 187.125C146.033 187.152 145.859 187.174 145.719 187.193C145.389 187.235 145.088 187.305 144.815 187.403C144.546 187.502 144.33 187.644 144.168 187.83C144.009 188.011 143.929 188.254 143.929 188.557C143.929 188.977 144.084 189.295 144.395 189.511C144.705 189.723 145.101 189.83 145.582 189.83ZM152.982 179.364V191H151.283V179.364H152.982ZM158.528 191.176C157.669 191.176 156.928 190.992 156.307 190.625C155.689 190.254 155.212 189.733 154.875 189.062C154.542 188.388 154.375 187.598 154.375 186.693C154.375 185.799 154.542 185.011 154.875 184.33C155.212 183.648 155.682 183.116 156.284 182.733C156.89 182.35 157.598 182.159 158.409 182.159C158.902 182.159 159.379 182.241 159.841 182.403C160.303 182.566 160.718 182.822 161.085 183.17C161.453 183.519 161.742 183.972 161.955 184.528C162.167 185.081 162.273 185.754 162.273 186.545V187.148H155.335V185.875H160.608C160.608 185.428 160.517 185.032 160.335 184.688C160.153 184.339 159.898 184.064 159.568 183.864C159.242 183.663 158.86 183.562 158.42 183.562C157.943 183.562 157.527 183.68 157.17 183.915C156.818 184.146 156.545 184.449 156.352 184.824C156.163 185.195 156.068 185.598 156.068 186.034V187.028C156.068 187.612 156.17 188.108 156.375 188.517C156.583 188.926 156.873 189.239 157.244 189.455C157.616 189.667 158.049 189.773 158.545 189.773C158.867 189.773 159.161 189.727 159.426 189.636C159.691 189.542 159.92 189.402 160.114 189.216C160.307 189.03 160.455 188.801 160.557 188.528L162.165 188.818C162.036 189.292 161.805 189.706 161.472 190.062C161.142 190.415 160.727 190.689 160.227 190.886C159.731 191.08 159.165 191.176 158.528 191.176ZM167.419 191.176C166.559 191.176 165.819 190.992 165.197 190.625C164.58 190.254 164.103 189.733 163.766 189.062C163.432 188.388 163.266 187.598 163.266 186.693C163.266 185.799 163.432 185.011 163.766 184.33C164.103 183.648 164.572 183.116 165.175 182.733C165.781 182.35 166.489 182.159 167.3 182.159C167.792 182.159 168.269 182.241 168.732 182.403C169.194 182.566 169.608 182.822 169.976 183.17C170.343 183.519 170.633 183.972 170.845 184.528C171.057 185.081 171.163 185.754 171.163 186.545V187.148H164.226V185.875H169.499C169.499 185.428 169.408 185.032 169.226 184.688C169.044 184.339 168.788 184.064 168.459 183.864C168.133 183.663 167.75 183.562 167.311 183.562C166.834 183.562 166.417 183.68 166.061 183.915C165.709 184.146 165.436 184.449 165.243 184.824C165.054 185.195 164.959 185.598 164.959 186.034V187.028C164.959 187.612 165.061 188.108 165.266 188.517C165.474 188.926 165.764 189.239 166.135 189.455C166.506 189.667 166.94 189.773 167.436 189.773C167.758 189.773 168.052 189.727 168.317 189.636C168.582 189.542 168.811 189.402 169.004 189.216C169.197 189.03 169.345 188.801 169.447 188.528L171.055 188.818C170.927 189.292 170.696 189.706 170.362 190.062C170.033 190.415 169.618 190.689 169.118 190.886C168.622 191.08 168.055 191.176 167.419 191.176ZM174.111 188.04L174.099 185.966H174.395L177.872 182.273H179.906L175.94 186.477H175.673L174.111 188.04ZM172.548 191V179.364H174.247V191H172.548ZM178.06 191L174.935 186.852L176.105 185.665L180.145 191H178.06ZM183.494 191.193C182.941 191.193 182.441 191.091 181.994 190.886C181.547 190.678 181.193 190.377 180.932 189.983C180.674 189.589 180.545 189.106 180.545 188.534C180.545 188.042 180.64 187.636 180.83 187.318C181.019 187 181.275 186.748 181.597 186.562C181.919 186.377 182.278 186.237 182.676 186.142C183.074 186.047 183.479 185.975 183.892 185.926C184.415 185.866 184.839 185.816 185.165 185.778C185.491 185.737 185.727 185.67 185.875 185.58C186.023 185.489 186.097 185.341 186.097 185.136V185.097C186.097 184.6 185.956 184.216 185.676 183.943C185.4 183.67 184.987 183.534 184.438 183.534C183.866 183.534 183.415 183.661 183.085 183.915C182.759 184.165 182.534 184.443 182.409 184.75L180.812 184.386C181.002 183.856 181.278 183.428 181.642 183.102C182.009 182.773 182.432 182.534 182.909 182.386C183.386 182.235 183.888 182.159 184.415 182.159C184.763 182.159 185.133 182.201 185.523 182.284C185.917 182.364 186.284 182.511 186.625 182.727C186.97 182.943 187.252 183.252 187.472 183.653C187.691 184.051 187.801 184.568 187.801 185.205V191H186.142V189.807H186.074C185.964 190.027 185.799 190.242 185.58 190.455C185.36 190.667 185.078 190.843 184.733 190.983C184.388 191.123 183.975 191.193 183.494 191.193ZM183.864 189.83C184.333 189.83 184.735 189.737 185.068 189.551C185.405 189.366 185.661 189.123 185.835 188.824C186.013 188.521 186.102 188.197 186.102 187.852V186.727C186.042 186.788 185.924 186.845 185.75 186.898C185.58 186.947 185.384 186.991 185.165 187.028C184.945 187.062 184.731 187.095 184.523 187.125C184.314 187.152 184.14 187.174 184 187.193C183.67 187.235 183.369 187.305 183.097 187.403C182.828 187.502 182.612 187.644 182.449 187.83C182.29 188.011 182.21 188.254 182.21 188.557C182.21 188.977 182.366 189.295 182.676 189.511C182.987 189.723 183.383 189.83 183.864 189.83ZM196.57 194.165C195.395 194.165 194.354 194.004 193.445 193.682C192.539 193.364 191.776 192.894 191.155 192.273C190.534 191.655 190.062 190.898 189.74 190C189.418 189.102 189.257 188.078 189.257 186.926C189.257 185.805 189.42 184.797 189.746 183.903C190.071 183.009 190.545 182.248 191.166 181.619C191.791 180.987 192.551 180.504 193.445 180.17C194.339 179.837 195.354 179.67 196.49 179.67C197.577 179.67 198.536 179.841 199.365 180.182C200.195 180.523 200.892 180.991 201.456 181.585C202.024 182.18 202.452 182.862 202.74 183.631C203.028 184.4 203.172 185.212 203.172 186.068C203.172 186.667 203.134 187.252 203.058 187.824C202.982 188.392 202.842 188.907 202.638 189.369C202.437 189.828 202.145 190.195 201.763 190.472C201.384 190.744 200.892 190.886 200.286 190.898C199.964 190.909 199.651 190.871 199.348 190.784C199.045 190.697 198.787 190.557 198.575 190.364C198.363 190.167 198.234 189.917 198.189 189.614H198.121C198.03 189.837 197.878 190.045 197.666 190.239C197.454 190.428 197.183 190.58 196.854 190.693C196.528 190.803 196.149 190.848 195.717 190.83C195.24 190.811 194.81 190.703 194.428 190.506C194.045 190.309 193.717 190.036 193.445 189.688C193.176 189.339 192.969 188.926 192.825 188.449C192.681 187.972 192.609 187.441 192.609 186.858C192.609 186.297 192.691 185.795 192.854 185.352C193.017 184.905 193.238 184.521 193.518 184.199C193.803 183.873 194.128 183.616 194.496 183.426C194.863 183.237 195.251 183.117 195.661 183.068C196.058 183.023 196.424 183.034 196.757 183.102C197.09 183.17 197.367 183.275 197.587 183.415C197.81 183.555 197.95 183.708 198.007 183.875H198.081V183.239H199.479V188.511C199.479 188.811 199.556 189.064 199.712 189.273C199.871 189.481 200.096 189.585 200.388 189.585C200.732 189.585 201.001 189.458 201.195 189.205C201.392 188.951 201.53 188.561 201.609 188.034C201.693 187.508 201.734 186.833 201.734 186.011C201.734 185.436 201.657 184.894 201.501 184.386C201.35 183.875 201.125 183.413 200.825 183C200.53 182.583 200.166 182.225 199.734 181.926C199.303 181.627 198.81 181.396 198.257 181.233C197.708 181.07 197.1 180.989 196.433 180.989C195.528 180.989 194.723 181.129 194.018 181.409C193.314 181.686 192.719 182.085 192.234 182.608C191.753 183.131 191.388 183.758 191.138 184.489C190.892 185.216 190.768 186.032 190.768 186.938C190.768 187.881 190.895 188.718 191.149 189.449C191.403 190.176 191.778 190.79 192.274 191.29C192.77 191.79 193.384 192.169 194.115 192.426C194.846 192.688 195.689 192.818 196.643 192.818C197.068 192.818 197.484 192.78 197.893 192.705C198.303 192.633 198.666 192.549 198.984 192.455C199.306 192.364 199.547 192.29 199.706 192.233L200.104 193.477C199.869 193.587 199.556 193.695 199.166 193.801C198.78 193.907 198.359 193.994 197.905 194.062C197.454 194.131 197.009 194.165 196.57 194.165ZM196.047 189.438C196.539 189.438 196.935 189.339 197.234 189.142C197.537 188.945 197.755 188.652 197.888 188.261C198.024 187.867 198.092 187.375 198.092 186.784C198.089 186.208 198.015 185.75 197.871 185.409C197.731 185.064 197.511 184.818 197.212 184.67C196.916 184.519 196.536 184.443 196.07 184.443C195.642 184.443 195.276 184.547 194.973 184.756C194.674 184.964 194.445 185.246 194.286 185.602C194.13 185.958 194.051 186.354 194.047 186.79C194.051 187.248 194.115 187.68 194.24 188.085C194.369 188.487 194.577 188.812 194.865 189.062C195.157 189.312 195.551 189.438 196.047 189.438ZM208.207 194.455C207.514 194.455 206.918 194.364 206.418 194.182C205.921 194 205.516 193.759 205.202 193.46C204.887 193.161 204.652 192.833 204.497 192.477L205.957 191.875C206.06 192.042 206.196 192.218 206.366 192.403C206.541 192.593 206.776 192.754 207.071 192.886C207.37 193.019 207.755 193.085 208.224 193.085C208.868 193.085 209.401 192.928 209.821 192.614C210.241 192.303 210.452 191.807 210.452 191.125V189.409H210.344C210.241 189.595 210.094 189.801 209.901 190.028C209.711 190.256 209.45 190.453 209.116 190.619C208.783 190.786 208.349 190.869 207.815 190.869C207.126 190.869 206.505 190.708 205.952 190.386C205.402 190.061 204.967 189.581 204.645 188.949C204.327 188.312 204.168 187.53 204.168 186.602C204.168 185.674 204.325 184.879 204.639 184.216C204.957 183.553 205.393 183.045 205.946 182.693C206.499 182.337 207.126 182.159 207.827 182.159C208.368 182.159 208.806 182.25 209.139 182.432C209.473 182.61 209.732 182.818 209.918 183.057C210.107 183.295 210.253 183.506 210.355 183.688H210.48V182.273H212.145V191.193C212.145 191.943 211.971 192.559 211.622 193.04C211.274 193.521 210.802 193.877 210.207 194.108C209.616 194.339 208.95 194.455 208.207 194.455ZM208.19 189.46C208.679 189.46 209.092 189.347 209.429 189.119C209.77 188.888 210.027 188.559 210.202 188.131C210.38 187.699 210.469 187.182 210.469 186.58C210.469 185.992 210.382 185.475 210.207 185.028C210.033 184.581 209.777 184.233 209.44 183.983C209.103 183.729 208.687 183.602 208.19 183.602C207.679 183.602 207.253 183.735 206.912 184C206.571 184.261 206.313 184.617 206.139 185.068C205.969 185.519 205.884 186.023 205.884 186.58C205.884 187.152 205.971 187.653 206.145 188.085C206.319 188.517 206.577 188.854 206.918 189.097C207.262 189.339 207.687 189.46 208.19 189.46ZM213.923 191V182.273H215.554V183.693H215.662C215.844 183.212 216.141 182.837 216.554 182.568C216.967 182.295 217.461 182.159 218.037 182.159C218.62 182.159 219.109 182.295 219.503 182.568C219.901 182.841 220.194 183.216 220.384 183.693H220.474C220.683 183.227 221.014 182.856 221.469 182.58C221.923 182.299 222.465 182.159 223.094 182.159C223.885 182.159 224.531 182.407 225.031 182.903C225.535 183.4 225.787 184.148 225.787 185.148V191H224.088V185.307C224.088 184.716 223.927 184.288 223.605 184.023C223.283 183.758 222.899 183.625 222.452 183.625C221.899 183.625 221.469 183.795 221.162 184.136C220.855 184.473 220.702 184.907 220.702 185.438V191H219.009V185.199C219.009 184.725 218.861 184.345 218.565 184.057C218.27 183.769 217.885 183.625 217.412 183.625C217.09 183.625 216.793 183.71 216.52 183.881C216.251 184.047 216.033 184.28 215.866 184.58C215.704 184.879 215.622 185.225 215.622 185.619V191H213.923ZM230.104 191.193C229.551 191.193 229.051 191.091 228.604 190.886C228.157 190.678 227.803 190.377 227.541 189.983C227.284 189.589 227.155 189.106 227.155 188.534C227.155 188.042 227.25 187.636 227.439 187.318C227.628 187 227.884 186.748 228.206 186.562C228.528 186.377 228.888 186.237 229.286 186.142C229.683 186.047 230.089 185.975 230.501 185.926C231.024 185.866 231.448 185.816 231.774 185.778C232.1 185.737 232.337 185.67 232.484 185.58C232.632 185.489 232.706 185.341 232.706 185.136V185.097C232.706 184.6 232.566 184.216 232.286 183.943C232.009 183.67 231.596 183.534 231.047 183.534C230.475 183.534 230.024 183.661 229.695 183.915C229.369 184.165 229.143 184.443 229.018 184.75L227.422 184.386C227.611 183.856 227.888 183.428 228.251 183.102C228.619 182.773 229.041 182.534 229.518 182.386C229.996 182.235 230.498 182.159 231.024 182.159C231.373 182.159 231.742 182.201 232.132 182.284C232.526 182.364 232.893 182.511 233.234 182.727C233.579 182.943 233.861 183.252 234.081 183.653C234.301 184.051 234.411 184.568 234.411 185.205V191H232.751V189.807H232.683C232.573 190.027 232.409 190.242 232.189 190.455C231.969 190.667 231.687 190.843 231.342 190.983C230.998 191.123 230.585 191.193 230.104 191.193ZM230.473 189.83C230.943 189.83 231.344 189.737 231.678 189.551C232.015 189.366 232.27 189.123 232.445 188.824C232.623 188.521 232.712 188.197 232.712 187.852V186.727C232.651 186.788 232.534 186.845 232.359 186.898C232.189 186.947 231.994 186.991 231.774 187.028C231.554 187.062 231.34 187.095 231.132 187.125C230.924 187.152 230.75 187.174 230.609 187.193C230.28 187.235 229.979 187.305 229.706 187.403C229.437 187.502 229.221 187.644 229.058 187.83C228.899 188.011 228.82 188.254 228.82 188.557C228.82 188.977 228.975 189.295 229.286 189.511C229.596 189.723 229.992 189.83 230.473 189.83ZM236.173 191V182.273H237.872V191H236.173ZM237.031 180.926C236.736 180.926 236.482 180.828 236.27 180.631C236.062 180.43 235.957 180.191 235.957 179.915C235.957 179.634 236.062 179.396 236.27 179.199C236.482 178.998 236.736 178.898 237.031 178.898C237.327 178.898 237.579 178.998 237.787 179.199C237.999 179.396 238.105 179.634 238.105 179.915C238.105 180.191 237.999 180.43 237.787 180.631C237.579 180.828 237.327 180.926 237.031 180.926ZM241.357 179.364V191H239.658V179.364H241.357ZM244.261 191.108C243.951 191.108 243.684 190.998 243.46 190.778C243.237 190.555 243.125 190.286 243.125 189.972C243.125 189.661 243.237 189.396 243.46 189.176C243.684 188.953 243.951 188.841 244.261 188.841C244.572 188.841 244.839 188.953 245.062 189.176C245.286 189.396 245.398 189.661 245.398 189.972C245.398 190.18 245.345 190.371 245.239 190.545C245.136 190.716 245 190.852 244.83 190.955C244.659 191.057 244.47 191.108 244.261 191.108ZM250.849 191.176C250.005 191.176 249.277 190.985 248.668 190.602C248.062 190.216 247.596 189.684 247.27 189.006C246.944 188.328 246.781 187.551 246.781 186.676C246.781 185.79 246.948 185.008 247.281 184.33C247.615 183.648 248.084 183.116 248.69 182.733C249.296 182.35 250.01 182.159 250.832 182.159C251.495 182.159 252.086 182.282 252.605 182.528C253.124 182.771 253.543 183.112 253.861 183.551C254.183 183.991 254.374 184.504 254.435 185.091H252.781C252.69 184.682 252.482 184.33 252.156 184.034C251.834 183.739 251.402 183.591 250.861 183.591C250.387 183.591 249.973 183.716 249.616 183.966C249.264 184.212 248.99 184.564 248.793 185.023C248.596 185.477 248.497 186.015 248.497 186.636C248.497 187.273 248.594 187.822 248.787 188.284C248.98 188.746 249.253 189.104 249.605 189.358C249.961 189.612 250.38 189.739 250.861 189.739C251.183 189.739 251.474 189.68 251.736 189.562C252.001 189.441 252.223 189.269 252.401 189.045C252.582 188.822 252.709 188.553 252.781 188.239H254.435C254.374 188.803 254.19 189.307 253.884 189.75C253.577 190.193 253.166 190.542 252.651 190.795C252.139 191.049 251.539 191.176 250.849 191.176ZM259.428 191.176C258.609 191.176 257.895 190.989 257.286 190.614C256.676 190.239 256.202 189.714 255.865 189.04C255.528 188.366 255.359 187.578 255.359 186.676C255.359 185.771 255.528 184.979 255.865 184.301C256.202 183.623 256.676 183.097 257.286 182.722C257.895 182.347 258.609 182.159 259.428 182.159C260.246 182.159 260.96 182.347 261.57 182.722C262.179 183.097 262.653 183.623 262.99 184.301C263.327 184.979 263.496 185.771 263.496 186.676C263.496 187.578 263.327 188.366 262.99 189.04C262.653 189.714 262.179 190.239 261.57 190.614C260.96 190.989 260.246 191.176 259.428 191.176ZM259.433 189.75C259.964 189.75 260.403 189.61 260.751 189.33C261.1 189.049 261.357 188.676 261.524 188.21C261.695 187.744 261.78 187.231 261.78 186.67C261.78 186.114 261.695 185.602 261.524 185.136C261.357 184.667 261.1 184.29 260.751 184.006C260.403 183.722 259.964 183.58 259.433 183.58C258.899 183.58 258.456 183.722 258.104 184.006C257.755 184.29 257.496 184.667 257.325 185.136C257.159 185.602 257.075 186.114 257.075 186.67C257.075 187.231 257.159 187.744 257.325 188.21C257.496 188.676 257.755 189.049 258.104 189.33C258.456 189.61 258.899 189.75 259.433 189.75ZM264.892 191V182.273H266.523V183.693H266.631C266.813 183.212 267.11 182.837 267.523 182.568C267.936 182.295 268.43 182.159 269.006 182.159C269.589 182.159 270.078 182.295 270.472 182.568C270.869 182.841 271.163 183.216 271.352 183.693H271.443C271.652 183.227 271.983 182.856 272.438 182.58C272.892 182.299 273.434 182.159 274.062 182.159C274.854 182.159 275.5 182.407 276 182.903C276.504 183.4 276.756 184.148 276.756 185.148V191H275.057V185.307C275.057 184.716 274.896 184.288 274.574 184.023C274.252 183.758 273.867 183.625 273.42 183.625C272.867 183.625 272.438 183.795 272.131 184.136C271.824 184.473 271.67 184.907 271.67 185.438V191H269.977V185.199C269.977 184.725 269.83 184.345 269.534 184.057C269.239 183.769 268.854 183.625 268.381 183.625C268.059 183.625 267.761 183.71 267.489 183.881C267.22 184.047 267.002 184.28 266.835 184.58C266.672 184.879 266.591 185.225 266.591 185.619V191H264.892Z" fill="#AFB3CA"/>
</g>
</g>
<defs>
<filter id="filter0_b_266_895" x="84.3" y="195.3" width="365.4" height="197.4" filterUnits="userSpaceOnUse" color-interpolation-filters="sRGB">
<feFlood flood-opacity="0" result="BackgroundImageFix"/>
<feGaussianBlur in="BackgroundImageFix" stdDeviation="30.85"/>
<feComposite in2="SourceAlpha" operator="in" result="effect1_backgroundBlur_266_895"/>
<feBlend mode="normal" in="SourceGraphic" in2="effect1_backgroundBlur_266_895" result="shape"/>
</filter>
<filter id="filter1_d_266_895" x="157" y="267" width="54" height="54" filterUnits="userSpaceOnUse" color-interpolation-filters="sRGB">
<feFlood flood-opacity="0" result="BackgroundImageFix"/>
<feColorMatrix in="SourceAlpha" type="matrix" values="0 0 0 0 0 0 0 0 0 0 0 0 0 0 0 0 0 0 127 0" result="hardAlpha"/>
<feMorphology radius="1" operator="dilate" in="SourceAlpha" result="effect1_dropShadow_266_895"/>
<feOffset/>
<feComposite in2="hardAlpha" operator="out"/>
<feColorMatrix type="matrix" values="0 0 0 0 0.176471 0 0 0 0 0.180392 0 0 0 0 0.282353 0 0 0 1 0"/>
<feBlend mode="normal" in2="BackgroundImageFix" result="effect1_dropShadow_266_895"/>
<feBlend mode="normal" in="SourceGraphic" in2="effect1_dropShadow_266_895" result="shape"/>
</filter>
<filter id="filter2_f_266_895" x="160.369" y="273.367" width="48.2" height="48.2" filterUnits="userSpaceOnUse" color-interpolation-filters="sRGB">
<feFlood flood-opacity="0" result="BackgroundImageFix"/>
<feBlend mode="normal" in="SourceGraphic" in2="BackgroundImageFix" result="shape"/>
<feGaussianBlur stdDeviation="8.8" result="effect1_foregroundBlur_266_895"/>
</filter>
<filter id="filter3_b_266_895" x="-59.7" y="75.3" width="417.4" height="197.4" filterUnits="userSpaceOnUse" color-interpolation-filters="sRGB">
<feFlood flood-opacity="0" result="BackgroundImageFix"/>
<feGaussianBlur in="BackgroundImageFix" stdDeviation="30.85"/>
<feComposite in2="SourceAlpha" operator="in" result="effect1_backgroundBlur_266_895"/>
<feBlend mode="normal" in="SourceGraphic" in2="effect1_backgroundBlur_266_895" result="shape"/>
</filter>
<filter id="filter4_d_266_895" x="13" y="147" width="54" height="54" filterUnits="userSpaceOnUse" color-interpolation-filters="sRGB">
<feFlood flood-opacity="0" result="BackgroundImageFix"/>
<feColorMatrix in="SourceAlpha" type="matrix" values="0 0 0 0 0 0 0 0 0 0 0 0 0 0 0 0 0 0 127 0" result="hardAlpha"/>
<feMorphology radius="1" operator="dilate" in="SourceAlpha" result="effect1_dropShadow_266_895"/>
<feOffset/>
<feComposite in2="hardAlpha" operator="out"/>
<feColorMatrix type="matrix" values="0 0 0 0 0.176471 0 0 0 0 0.180392 0 0 0 0 0.282353 0 0 0 1 0"/>
<feBlend mode="normal" in2="BackgroundImageFix" result="effect1_dropShadow_266_895"/>
<feBlend mode="normal" in="SourceGraphic" in2="effect1_dropShadow_266_895" result="shape"/>
</filter>
<filter id="filter5_f_266_895" x="15.3687" y="152.367" width="48.2" height="48.2" filterUnits="userSpaceOnUse" color-interpolation-filters="sRGB">
<feFlood flood-opacity="0" result="BackgroundImageFix"/>
<feBlend mode="normal" in="SourceGraphic" in2="BackgroundImageFix" result="shape"/>
<feGaussianBlur stdDeviation="8.8" result="effect1_foregroundBlur_266_895"/>
</filter>
<linearGradient id="paint0_linear_266_895" x1="267" y1="257" x2="282.5" y2="312" gradientUnits="userSpaceOnUse">
<stop stop-color="#1B1C36"/>
<stop offset="1" stop-color="#70717A"/>
</linearGradient>
<linearGradient id="paint1_linear_266_895" x1="283" y1="307" x2="372.5" y2="261" gradientUnits="userSpaceOnUse">
<stop stop-color="#2C2D47"/>
<stop offset="1" stop-color="#444AE2" stop-opacity="0.05"/>
</linearGradient>
<linearGradient id="paint2_linear_266_895" x1="149" y1="137" x2="162.069" y2="193.337" gradientUnits="userSpaceOnUse">
<stop stop-color="#1B1C36"/>
<stop offset="1" stop-color="#70717A"/>
</linearGradient>
<linearGradient id="paint3_linear_266_895" x1="168.438" y1="187" x2="267.334" y2="125.249" gradientUnits="userSpaceOnUse">
<stop stop-color="#2C2D47"/>
<stop offset="1" stop-color="#444AE2" stop-opacity="0.05"/>
</linearGradient>
<clipPath id="clip0_266_895">
<rect width="528" height="333" fill="white"/>
</clipPath>
<clipPath id="clip1_266_895">
<rect x="158" y="268" width="52" height="52" rx="16" fill="white"/>
</clipPath>
<clipPath id="clip2_266_895">
<rect x="14" y="148" width="52" height="52" rx="16" fill="white"/>
</clipPath>
</defs>
</svg>
