<svg width="454" height="89" viewBox="0 0 454 89" fill="none" xmlns="http://www.w3.org/2000/svg">
<rect width="453.25" height="89" fill="#050520"/>
<path fill-rule="evenodd" clip-rule="evenodd" d="M44.5 19.7759C44.5 12.949 38.9658 7.41479 32.1389 7.41479H27.8125C18.5962 7.41479 11.125 14.886 11.125 24.1023V32.137V40.1718C11.125 49.3881 18.5962 56.8593 27.8125 56.8593H32.1389C38.9658 56.8593 44.5 62.3935 44.5 69.2204V69.2204C44.5 76.0472 50.0342 81.5815 56.8611 81.5815H61.1875C70.4038 81.5815 77.875 74.1102 77.875 64.894V56.8593V48.8245C77.875 39.6082 70.4038 32.137 61.1875 32.137H56.8611C50.0342 32.137 44.5 26.6027 44.5 19.7759V19.7759Z" fill="url(#paint0_linear_253_362)"/>
<path d="M125.884 19.5449V67H116.139V19.5449H125.884ZM154.532 59.3081V16.9375H163.984V67H155.477L154.532 59.3081ZM132.238 49.791V49.1066C132.238 46.4122 132.543 43.9678 133.151 41.7732C133.759 39.5569 134.65 37.6556 135.824 36.0695C136.997 34.4833 138.442 33.2556 140.158 32.3865C141.875 31.5173 143.831 31.0828 146.025 31.0828C148.089 31.0828 149.893 31.5173 151.436 32.3865C153 33.2556 154.325 34.4941 155.412 36.1021C156.52 37.6882 157.411 39.5677 158.085 41.7406C158.758 43.8917 159.247 46.2493 159.551 48.8132V50.3125C159.247 52.7678 158.758 55.0493 158.085 57.157C157.411 59.2646 156.52 61.1116 155.412 62.6978C154.325 64.2622 153 65.479 151.436 66.3481C149.871 67.2173 148.046 67.6519 145.96 67.6519C143.765 67.6519 141.81 67.2064 140.093 66.3156C138.398 65.4247 136.964 64.1753 135.791 62.5674C134.639 60.9595 133.759 59.0691 133.151 56.8962C132.543 54.7234 132.238 52.355 132.238 49.791ZM141.625 49.1066V49.791C141.625 51.2468 141.734 52.6049 141.951 53.8651C142.19 55.1254 142.57 56.2444 143.092 57.2222C143.635 58.1782 144.33 58.9279 145.178 59.4711C146.047 59.9926 147.101 60.2533 148.339 60.2533C149.947 60.2533 151.273 59.8948 152.316 59.1777C153.359 58.439 154.152 57.4286 154.695 56.1466C155.26 54.8646 155.586 53.3871 155.673 51.714V47.4443C155.607 46.0754 155.412 44.8478 155.086 43.7614C154.782 42.6532 154.325 41.708 153.717 40.9258C153.13 40.1436 152.392 39.5352 151.501 39.1006C150.632 38.666 149.6 38.4487 148.404 38.4487C147.188 38.4487 146.145 38.7312 145.276 39.2961C144.406 39.8394 143.7 40.589 143.157 41.545C142.636 42.5011 142.244 43.631 141.984 44.9347C141.745 46.2167 141.625 47.6073 141.625 49.1066ZM186.797 67.6519C184.06 67.6519 181.604 67.2173 179.431 66.3481C177.259 65.4573 175.412 64.2296 173.891 62.6652C172.391 61.1007 171.24 59.2864 170.436 57.2222C169.632 55.1362 169.23 52.9199 169.23 50.5732V49.2695C169.23 46.5969 169.61 44.1525 170.371 41.9362C171.131 39.7198 172.218 37.7969 173.63 36.1672C175.064 34.5376 176.802 33.2882 178.845 32.4191C180.887 31.5282 183.191 31.0828 185.754 31.0828C188.253 31.0828 190.47 31.4956 192.403 32.3213C194.337 33.147 195.956 34.3203 197.26 35.8413C198.585 37.3623 199.585 39.1875 200.258 41.3169C200.932 43.4246 201.269 45.7712 201.269 48.3569V52.2681H173.239V46.0103H192.045V45.2932C192.045 43.9895 191.806 42.827 191.328 41.8058C190.872 40.7628 190.176 39.9371 189.242 39.3287C188.308 38.7203 187.113 38.4161 185.657 38.4161C184.418 38.4161 183.353 38.6877 182.463 39.231C181.572 39.7742 180.844 40.5347 180.279 41.5125C179.736 42.4902 179.323 43.6418 179.04 44.9673C178.78 46.271 178.649 47.7051 178.649 49.2695V50.5732C178.649 51.9856 178.845 53.2893 179.236 54.4844C179.649 55.6794 180.225 56.7115 180.963 57.5807C181.724 58.4498 182.636 59.1234 183.701 59.6014C184.788 60.0795 186.015 60.3185 187.384 60.3185C189.079 60.3185 190.654 59.9926 192.11 59.3407C193.588 58.6671 194.859 57.6567 195.923 56.3096L200.486 61.2637C199.748 62.3284 198.737 63.3496 197.455 64.3274C196.195 65.3052 194.674 66.1091 192.892 66.7393C191.111 67.3477 189.079 67.6519 186.797 67.6519ZM215.054 39.2635V67H205.667V31.7346H214.467L215.054 39.2635ZM213.685 48.1288H211.143C211.143 45.5214 211.48 43.1747 212.153 41.0887C212.827 38.9811 213.772 37.1885 214.989 35.7109C216.206 34.2117 217.651 33.0709 219.324 32.2887C221.019 31.4847 222.909 31.0828 224.995 31.0828C226.646 31.0828 228.156 31.3218 229.525 31.7998C230.894 32.2778 232.067 33.0383 233.045 34.0813C234.045 35.1243 234.805 36.504 235.327 38.2206C235.87 39.9371 236.142 42.0339 236.142 44.511V67H226.69V44.4784C226.69 42.9139 226.472 41.6971 226.038 40.828C225.603 39.9589 224.962 39.3505 224.115 39.0028C223.289 38.6334 222.268 38.4487 221.051 38.4487C219.791 38.4487 218.694 38.6986 217.759 39.1984C216.847 39.6981 216.086 40.3934 215.478 41.2843C214.891 42.1534 214.446 43.1747 214.141 44.348C213.837 45.5214 213.685 46.7816 213.685 48.1288ZM259.803 31.7346V38.3835H239.269V31.7346H259.803ZM244.354 23.0323H253.74V56.3748C253.74 57.396 253.871 58.1782 254.132 58.7214C254.414 59.2646 254.827 59.6449 255.37 59.8622C255.913 60.0577 256.598 60.1555 257.423 60.1555C258.01 60.1555 258.532 60.1338 258.988 60.0903C259.466 60.0251 259.868 59.96 260.194 59.8948L260.226 66.8044C259.422 67.0652 258.553 67.2716 257.619 67.4237C256.685 67.5758 255.652 67.6519 254.523 67.6519C252.458 67.6519 250.655 67.3151 249.112 66.6415C247.591 65.9462 246.418 64.838 245.592 63.317C244.767 61.796 244.354 59.797 244.354 57.3199V23.0323ZM274.305 31.7346V67H264.886V31.7346H274.305ZM264.299 22.5435C264.299 21.1746 264.777 20.0447 265.733 19.1538C266.689 18.2629 267.971 17.8175 269.579 17.8175C271.165 17.8175 272.436 18.2629 273.393 19.1538C274.37 20.0447 274.859 21.1746 274.859 22.5435C274.859 23.9124 274.37 25.0422 273.393 25.9331C272.436 26.824 271.165 27.2694 269.579 27.2694C267.971 27.2694 266.689 26.824 265.733 25.9331C264.777 25.0422 264.299 23.9124 264.299 22.5435ZM298.585 31.7346V38.3835H278.052V31.7346H298.585ZM283.136 23.0323H292.523V56.3748C292.523 57.396 292.654 58.1782 292.914 58.7214C293.197 59.2646 293.61 59.6449 294.153 59.8622C294.696 60.0577 295.38 60.1555 296.206 60.1555C296.793 60.1555 297.314 60.1338 297.771 60.0903C298.249 60.0251 298.651 59.96 298.977 59.8948L299.009 66.8044C298.205 67.0652 297.336 67.2716 296.402 67.4237C295.467 67.5758 294.435 67.6519 293.305 67.6519C291.241 67.6519 289.438 67.3151 287.895 66.6415C286.374 65.9462 285.201 64.838 284.375 63.317C283.549 61.796 283.136 59.797 283.136 57.3199V23.0323ZM313.642 63.0237L322.996 31.7346H333.067L318.889 72.3126C318.585 73.2035 318.172 74.1595 317.651 75.1808C317.151 76.202 316.467 77.1689 315.598 78.0815C314.75 79.0159 313.675 79.7764 312.371 80.363C311.089 80.9497 309.514 81.243 307.645 81.243C306.754 81.243 306.026 81.1887 305.461 81.0801C304.896 80.9714 304.223 80.8193 303.44 80.6238V73.7467C303.679 73.7467 303.929 73.7467 304.19 73.7467C304.451 73.7684 304.701 73.7793 304.94 73.7793C306.178 73.7793 307.189 73.6381 307.971 73.3556C308.753 73.0731 309.383 72.6385 309.861 72.0519C310.339 71.4869 310.72 70.7482 311.002 69.8356L313.642 63.0237ZM309.731 31.7346L317.39 57.2874L318.726 67.2281L312.338 67.9126L299.66 31.7346H309.731ZM368.299 38.8724V46.4991H343.528V38.8724H368.299ZM346.429 19.5449V67H336.651V19.5449H346.429ZM375.274 19.5449V67H365.528V19.5449H375.274ZM403.302 58.5585V31.7346H412.689V67H403.856L403.302 58.5585ZM404.345 51.3229L407.115 51.2577C407.115 53.6044 406.844 55.7881 406.301 57.8088C405.757 59.8079 404.943 61.5461 403.856 63.0237C402.77 64.4795 401.401 65.6202 399.75 66.4459C398.098 67.2499 396.153 67.6519 393.915 67.6519C392.199 67.6519 390.613 67.4128 389.157 66.9348C387.723 66.4351 386.484 65.6637 385.441 64.6207C384.42 63.556 383.616 62.198 383.029 60.5466C382.464 58.8735 382.182 56.8636 382.182 54.517V31.7346H391.569V54.5822C391.569 55.6251 391.688 56.5051 391.927 57.2222C392.188 57.9392 392.547 58.5259 393.003 58.9822C393.459 59.4385 393.991 59.7644 394.6 59.96C395.23 60.1555 395.925 60.2533 396.686 60.2533C398.62 60.2533 400.141 59.8622 401.249 59.08C402.379 58.2977 403.172 57.233 403.628 55.8859C404.106 54.517 404.345 52.996 404.345 51.3229ZM419.108 16.9375H428.495V58.917L427.55 67H419.108V16.9375ZM450.821 49.0088V49.6932C450.821 52.3224 450.539 54.7343 449.974 56.9288C449.43 59.1234 448.583 61.0247 447.431 62.6326C446.28 64.2188 444.846 65.4573 443.129 66.3481C441.434 67.2173 439.435 67.6519 437.132 67.6519C434.981 67.6519 433.112 67.2173 431.526 66.3481C429.962 65.479 428.647 64.2513 427.582 62.6652C426.518 61.079 425.659 59.2212 425.008 57.0918C424.356 54.9624 423.867 52.6375 423.541 50.1169V48.6177C423.867 46.0972 424.356 43.7722 425.008 41.6428C425.659 39.5134 426.518 37.6556 427.582 36.0695C428.647 34.4833 429.962 33.2556 431.526 32.3865C433.091 31.5173 434.938 31.0828 437.067 31.0828C439.392 31.0828 441.413 31.5282 443.129 32.4191C444.867 33.2882 446.302 34.5267 447.431 36.1346C448.583 37.7208 449.43 39.6112 449.974 41.8058C450.539 43.9786 450.821 46.3796 450.821 49.0088ZM441.434 49.6932V49.0088C441.434 47.5747 441.326 46.2275 441.108 44.9673C440.913 43.6853 440.565 42.5663 440.065 41.6102C439.566 40.6324 438.881 39.8611 438.012 39.2961C437.165 38.7312 436.067 38.4487 434.72 38.4487C433.438 38.4487 432.352 38.666 431.461 39.1006C430.57 39.5352 429.831 40.1436 429.245 40.9258C428.68 41.708 428.256 42.6423 427.974 43.7288C427.691 44.7935 427.517 45.9668 427.452 47.2488V51.5184C427.517 53.235 427.8 54.756 428.299 56.0814C428.821 57.3851 429.603 58.4172 430.646 59.1777C431.711 59.9165 433.091 60.2859 434.785 60.2859C436.111 60.2859 437.208 60.0251 438.077 59.5037C438.946 58.9822 439.62 58.2434 440.098 57.2874C440.598 56.3313 440.945 55.2123 441.141 53.9303C441.337 52.6266 441.434 51.2142 441.434 49.6932Z" fill="#CAD1E9"/>
<defs>
<linearGradient id="paint0_linear_253_362" x1="44.5" y1="7.41479" x2="44.5" y2="81.5815" gradientUnits="userSpaceOnUse">
<stop stop-color="#B67EFD"/>
<stop offset="0.97" stop-color="#FFAC8E"/>
<stop offset="1" stop-color="#CAD1E9" stop-opacity="0"/>
</linearGradient>
</defs>
</svg>
