<svg width="603" height="444" viewBox="0 0 603 444" fill="none" xmlns="http://www.w3.org/2000/svg">
<g filter="url(#filter0_b_264_429)">
<rect x="114" width="489" height="343" rx="24" fill="url(#paint0_linear_264_429)" fill-opacity="0.16"/>
<rect x="114.5" y="0.5" width="488" height="342" rx="23.5" stroke="url(#paint1_linear_264_429)"/>
</g>
<g filter="url(#filter1_b_264_429)">
<rect x="62" y="52" width="489" height="343" rx="24" fill="url(#paint2_linear_264_429)" fill-opacity="0.16"/>
<rect x="62.5" y="52.5" width="488" height="342" rx="23.5" stroke="url(#paint3_linear_264_429)"/>
<rect x="76" y="187" width="279" height="23" rx="11.5" fill="#CAD1E9"/>
<rect x="95" y="83" width="260" height="23" rx="11.5" fill="#CAD1E9"/>
<rect opacity="0.4" x="95" y="224" width="347" height="23" rx="11.5" fill="#CAD1E9"/>
<rect opacity="0.4" x="66" y="261" width="376" height="23" rx="11.5" fill="#CAD1E9"/>
<path fill-rule="evenodd" clip-rule="evenodd" d="M124.155 368.125C124.707 368.125 125.155 368.573 125.155 369.125V370.625C125.155 371.177 124.707 371.625 124.155 371.625C123.602 371.625 123.155 371.177 123.155 370.625V369.125C123.155 368.573 123.602 368.125 124.155 368.125ZM118.418 370.418C118.808 370.027 119.442 370.027 119.832 370.418L120.832 371.418C121.223 371.808 121.223 372.442 120.832 372.832C120.442 373.223 119.808 373.223 119.418 372.832L118.418 371.832C118.027 371.442 118.027 370.808 118.418 370.418ZM129.832 370.418C130.223 370.808 130.223 371.442 129.832 371.832L128.832 372.832C128.442 373.223 127.808 373.223 127.418 372.832C127.027 372.442 127.027 371.808 127.418 371.418L128.418 370.418C128.808 370.027 129.442 370.027 129.832 370.418ZM116.125 376.155C116.125 375.602 116.573 375.155 117.125 375.155H118.625C119.177 375.155 119.625 375.602 119.625 376.155C119.625 376.707 119.177 377.155 118.625 377.155H117.125C116.573 377.155 116.125 376.707 116.125 376.155ZM120.832 379.418C121.223 379.808 121.223 380.442 120.832 380.832L119.832 381.832C119.442 382.223 118.808 382.223 118.418 381.832C118.027 381.442 118.027 380.808 118.418 380.418L119.418 379.418C119.808 379.027 120.442 379.027 120.832 379.418Z" fill="#CAD1E9"/>
<path d="M137.587 378.809C137.72 378.984 137.877 379.253 137.875 379.588C137.87 380.404 137.313 380.962 136.774 381.315C136.22 381.677 135.507 381.945 134.815 382.151C134.113 382.361 133.376 382.523 132.748 382.653C132.31 382.742 131.533 382.901 131.31 382.964C130.942 383.067 130.868 383.133 130.843 383.159C130.816 383.189 130.751 383.278 130.665 383.67L130.662 383.685C130.258 385.519 129.942 386.96 129.603 387.942C129.433 388.433 129.237 388.876 128.979 389.211C128.707 389.564 128.32 389.851 127.799 389.874C127.456 389.889 127.181 389.733 127.007 389.604C126.822 389.466 126.653 389.286 126.503 389.097C126.199 388.719 125.886 388.201 125.578 387.614C124.959 386.431 124.306 384.85 123.755 383.227C123.204 381.605 122.742 379.909 122.52 378.494C122.409 377.788 122.352 377.124 122.384 376.562C122.413 376.037 122.525 375.435 122.909 375.022C123.304 374.596 123.907 374.451 124.435 374.4C124.998 374.346 125.663 374.383 126.37 374.475C127.788 374.661 129.494 375.09 131.127 375.616C132.762 376.143 134.359 376.777 135.559 377.387C136.156 377.69 136.682 378.001 137.069 378.304C137.262 378.455 137.445 378.624 137.587 378.809Z" fill="#CAD1E9"/>
</g>
<rect x="30" y="327" width="90" height="43" rx="14" fill="#ED5959"/>
<rect x="30.5" y="327.5" width="89" height="42" rx="13.5" stroke="white" stroke-opacity="0.17"/>
<path d="M56.0455 354H52.2784V342.364H56.1648C57.3049 342.364 58.2841 342.597 59.1023 343.062C59.9205 343.525 60.5473 344.189 60.983 345.057C61.4223 345.92 61.642 346.956 61.642 348.165C61.642 349.377 61.4205 350.419 60.9773 351.29C60.5379 352.161 59.9015 352.831 59.0682 353.301C58.2348 353.767 57.2273 354 56.0455 354ZM54.0341 352.466H55.9489C56.8352 352.466 57.572 352.299 58.1591 351.966C58.7462 351.629 59.1856 351.142 59.4773 350.506C59.7689 349.866 59.9148 349.085 59.9148 348.165C59.9148 347.252 59.7689 346.477 59.4773 345.841C59.1894 345.205 58.7595 344.722 58.1875 344.392C57.6155 344.062 56.9053 343.898 56.0568 343.898H54.0341V352.466ZM66.9503 354.176C66.0904 354.176 65.3499 353.992 64.7287 353.625C64.1113 353.254 63.634 352.733 63.2969 352.062C62.9635 351.388 62.7969 350.598 62.7969 349.693C62.7969 348.799 62.9635 348.011 63.2969 347.33C63.634 346.648 64.1037 346.116 64.706 345.733C65.312 345.35 66.0204 345.159 66.831 345.159C67.3234 345.159 67.8007 345.241 68.2628 345.403C68.7249 345.566 69.1397 345.822 69.5071 346.17C69.8745 346.519 70.1643 346.972 70.3764 347.528C70.5885 348.081 70.6946 348.754 70.6946 349.545V350.148H63.7571V348.875H69.0298C69.0298 348.428 68.9389 348.032 68.7571 347.688C68.5753 347.339 68.3196 347.064 67.9901 346.864C67.6643 346.663 67.2817 346.562 66.8423 346.562C66.3651 346.562 65.9484 346.68 65.5923 346.915C65.2401 347.146 64.9673 347.449 64.7741 347.824C64.5848 348.195 64.4901 348.598 64.4901 349.034V350.028C64.4901 350.612 64.5923 351.108 64.7969 351.517C65.0052 351.926 65.295 352.239 65.6662 352.455C66.0374 352.667 66.4711 352.773 66.9673 352.773C67.2893 352.773 67.5829 352.727 67.848 352.636C68.1132 352.542 68.3423 352.402 68.5355 352.216C68.7287 352.03 68.8764 351.801 68.9787 351.528L70.5866 351.818C70.4579 352.292 70.2268 352.706 69.8935 353.062C69.5639 353.415 69.1491 353.689 68.6491 353.886C68.1529 354.08 67.5866 354.176 66.9503 354.176ZM73.7784 342.364V354H72.0795V342.364H73.7784ZM79.3253 354.176C78.4654 354.176 77.7249 353.992 77.1037 353.625C76.4863 353.254 76.009 352.733 75.6719 352.062C75.3385 351.388 75.1719 350.598 75.1719 349.693C75.1719 348.799 75.3385 348.011 75.6719 347.33C76.009 346.648 76.4787 346.116 77.081 345.733C77.687 345.35 78.3954 345.159 79.206 345.159C79.6984 345.159 80.1757 345.241 80.6378 345.403C81.0999 345.566 81.5147 345.822 81.8821 346.17C82.2495 346.519 82.5393 346.972 82.7514 347.528C82.9635 348.081 83.0696 348.754 83.0696 349.545V350.148H76.1321V348.875H81.4048C81.4048 348.428 81.3139 348.032 81.1321 347.688C80.9503 347.339 80.6946 347.064 80.3651 346.864C80.0393 346.663 79.6567 346.562 79.2173 346.562C78.7401 346.562 78.3234 346.68 77.9673 346.915C77.6151 347.146 77.3423 347.449 77.1491 347.824C76.9598 348.195 76.8651 348.598 76.8651 349.034V350.028C76.8651 350.612 76.9673 351.108 77.1719 351.517C77.3802 351.926 77.67 352.239 78.0412 352.455C78.4124 352.667 78.8461 352.773 79.3423 352.773C79.6643 352.773 79.9579 352.727 80.223 352.636C80.4882 352.542 80.7173 352.402 80.9105 352.216C81.1037 352.03 81.2514 351.801 81.3537 351.528L82.9616 351.818C82.8329 352.292 82.6018 352.706 82.2685 353.062C81.9389 353.415 81.5241 353.689 81.0241 353.886C80.5279 354.08 79.9616 354.176 79.3253 354.176ZM88.5284 345.273V346.636H83.7614V345.273H88.5284ZM85.0398 343.182H86.7386V351.438C86.7386 351.767 86.7879 352.015 86.8864 352.182C86.9848 352.345 87.1117 352.456 87.267 352.517C87.4261 352.574 87.5985 352.602 87.7841 352.602C87.9205 352.602 88.0398 352.593 88.142 352.574C88.2443 352.555 88.3239 352.54 88.3807 352.528L88.6875 353.932C88.589 353.97 88.4489 354.008 88.267 354.045C88.0852 354.087 87.858 354.11 87.5852 354.114C87.1383 354.121 86.7216 354.042 86.3352 353.875C85.9489 353.708 85.6364 353.451 85.3977 353.102C85.1591 352.754 85.0398 352.316 85.0398 351.79V343.182ZM93.5753 354.176C92.7154 354.176 91.9749 353.992 91.3537 353.625C90.7363 353.254 90.259 352.733 89.9219 352.062C89.5885 351.388 89.4219 350.598 89.4219 349.693C89.4219 348.799 89.5885 348.011 89.9219 347.33C90.259 346.648 90.7287 346.116 91.331 345.733C91.937 345.35 92.6454 345.159 93.456 345.159C93.9484 345.159 94.4257 345.241 94.8878 345.403C95.3499 345.566 95.7647 345.822 96.1321 346.17C96.4995 346.519 96.7893 346.972 97.0014 347.528C97.2135 348.081 97.3196 348.754 97.3196 349.545V350.148H90.3821V348.875H95.6548C95.6548 348.428 95.5639 348.032 95.3821 347.688C95.2003 347.339 94.9446 347.064 94.6151 346.864C94.2893 346.663 93.9067 346.562 93.4673 346.562C92.9901 346.562 92.5734 346.68 92.2173 346.915C91.8651 347.146 91.5923 347.449 91.3991 347.824C91.2098 348.195 91.1151 348.598 91.1151 349.034V350.028C91.1151 350.612 91.2173 351.108 91.4219 351.517C91.6302 351.926 91.92 352.239 92.2912 352.455C92.6624 352.667 93.0961 352.773 93.5923 352.773C93.9143 352.773 94.2079 352.727 94.473 352.636C94.7382 352.542 94.9673 352.402 95.1605 352.216C95.3537 352.03 95.5014 351.801 95.6037 351.528L97.2116 351.818C97.0829 352.292 96.8518 352.706 96.5185 353.062C96.1889 353.415 95.7741 353.689 95.2741 353.886C94.7779 354.08 94.2116 354.176 93.5753 354.176Z" fill="white"/>
<g filter="url(#filter2_d_264_429)">
<rect x="5" y="175" width="121" height="121" rx="30" fill="#0B1023"/>
<path opacity="0.4" fill-rule="evenodd" clip-rule="evenodd" d="M47.4375 222.938C47.4375 219.9 49.8999 217.438 52.9375 217.438C55.9751 217.438 58.4375 219.9 58.4375 222.938C58.4375 225.975 55.9751 228.438 52.9375 228.438C49.8999 228.438 47.4375 225.975 47.4375 222.938Z" fill="#3569CF"/>
<path opacity="0.4" d="M93.6103 237.933C88.2558 234.479 83.1545 233.033 78.2722 233.236C73.4124 233.439 69.0426 235.267 65.1118 237.895C58.461 242.341 52.6114 249.436 47.3739 255.789C46.5449 256.795 45.7309 257.782 44.9318 258.737L42.625 260.753L45.9882 263.043C48.3647 264.027 51.1443 264.458 54.3386 264.668C57.5205 264.877 61.353 264.877 65.9106 264.877H66.2065C72.1905 264.877 76.9609 264.877 80.7012 264.374C84.5633 263.855 87.7363 262.755 90.2454 260.246C92.444 258.047 93.5679 255.35 94.1606 252.099C94.7378 248.932 94.8459 245.027 94.8698 240.258L94.8775 238.75L93.6103 237.933Z" fill="#3569CF"/>
<path fill-rule="evenodd" clip-rule="evenodd" d="M65.7951 207.125H66.2049C72.1886 207.125 76.9593 207.125 80.6996 207.628C84.5617 208.147 87.7346 209.247 90.2437 211.756C92.7528 214.265 93.8531 217.438 94.3723 221.3C94.875 225.041 94.875 229.811 94.875 235.795V236.205C94.875 242.189 94.875 246.959 94.3723 250.7C93.8531 254.562 92.7528 257.735 90.2437 260.244C87.7346 262.753 84.5617 263.853 80.6996 264.372C76.959 264.875 72.1886 264.875 66.2046 264.875H65.7954C59.8114 264.875 55.0408 264.875 51.3005 264.372C47.4384 263.853 44.2655 262.753 41.7564 260.244C39.2473 257.735 38.147 254.562 37.6278 250.7C37.1249 246.959 37.1249 242.189 37.125 236.205V235.795C37.1249 229.811 37.1249 225.041 37.6278 221.3C38.147 217.438 39.2473 214.265 41.7564 211.756C44.2655 209.247 47.4384 208.147 51.3005 207.628C55.0408 207.125 59.8113 207.125 65.7951 207.125ZM52.0333 213.079C48.7812 213.516 46.9623 214.329 45.6455 215.645C44.3286 216.962 43.516 218.781 43.0787 222.033C42.6308 225.365 42.625 229.765 42.625 236C42.625 242.235 42.6308 246.635 43.0787 249.967C43.516 253.219 44.3286 255.038 45.6455 256.355C46.9623 257.671 48.7812 258.484 52.0333 258.921C55.3646 259.369 59.7645 259.375 66 259.375C72.2354 259.375 76.6354 259.369 79.9667 258.921C83.2189 258.484 85.0377 257.671 86.3547 256.355C87.6714 255.038 88.484 253.219 88.9212 249.967C89.3692 246.635 89.375 242.235 89.375 236C89.375 229.765 89.3692 225.365 88.9212 222.033C88.484 218.781 87.6714 216.962 86.3547 215.645C85.0377 214.329 83.2189 213.516 79.9667 213.079C76.6354 212.631 72.2354 212.625 66 212.625C59.7645 212.625 55.3646 212.631 52.0333 213.079Z" fill="#3569CF"/>
</g>
<g filter="url(#filter3_d_264_429)">
<rect x="458" y="318" width="121" height="121" rx="30" fill="#0B1023"/>
<path opacity="0.4" d="M508.183 370.179C511.635 370.02 515.141 369.938 518.997 369.938C522.854 369.938 526.36 370.02 529.811 370.179C534.785 370.408 538.823 374.259 539.48 379.133C539.838 381.793 540.143 384.587 540.143 387.458C540.143 390.33 539.838 393.124 539.48 395.783C538.823 400.658 534.785 404.509 529.811 404.738C526.36 404.897 522.854 404.979 518.997 404.979C515.141 404.979 511.635 404.897 508.183 404.738C503.21 404.509 499.171 400.658 498.515 395.783C498.157 393.124 497.852 390.33 497.852 387.458C497.852 384.587 498.157 381.793 498.515 379.133C499.171 374.259 503.21 370.408 508.183 370.179Z" fill="#236936"/>
<path fill-rule="evenodd" clip-rule="evenodd" d="M514.541 379.604C513.058 379.604 511.628 380.513 511.142 382.017L507.612 392.943C507.304 393.896 507.827 394.917 508.779 395.225C509.732 395.533 510.753 395.01 511.061 394.058L511.827 391.688H517.256L518.022 394.058C518.33 395.01 519.351 395.533 520.304 395.225C521.256 394.917 521.779 393.896 521.471 392.943L517.941 382.017C517.456 380.513 516.026 379.604 514.541 379.604ZM512.999 388.062L514.542 383.284L516.086 388.062H512.999Z" fill="#236936"/>
<path d="M528.063 381.417C528.063 380.416 527.251 379.604 526.25 379.604C525.249 379.604 524.438 380.416 524.438 381.417V393.5C524.438 394.501 525.249 395.313 526.25 395.313C527.251 395.313 528.063 394.501 528.063 393.5V381.417Z" fill="#236936"/>
<path d="M510.544 366.312C510.544 361.641 514.331 357.854 519.003 357.854C523.674 357.854 527.461 361.641 527.461 366.312V370.083C528.251 370.111 529.035 370.143 529.817 370.179C530.675 370.218 531.505 370.365 532.294 370.607V366.312C532.294 358.971 526.343 353.021 519.003 353.021C511.662 353.021 505.711 358.971 505.711 366.312V370.607C506.501 370.365 507.331 370.218 508.189 370.179C508.97 370.143 509.754 370.111 510.544 370.083V366.312Z" fill="#236936"/>
</g>
<defs>
<filter id="filter0_b_264_429" x="102.3" y="-11.7" width="512.4" height="366.4" filterUnits="userSpaceOnUse" color-interpolation-filters="sRGB">
<feFlood flood-opacity="0" result="BackgroundImageFix"/>
<feGaussianBlur in="BackgroundImageFix" stdDeviation="5.85"/>
<feComposite in2="SourceAlpha" operator="in" result="effect1_backgroundBlur_264_429"/>
<feBlend mode="normal" in="SourceGraphic" in2="effect1_backgroundBlur_264_429" result="shape"/>
</filter>
<filter id="filter1_b_264_429" x="-29.7" y="-39.7" width="672.4" height="526.4" filterUnits="userSpaceOnUse" color-interpolation-filters="sRGB">
<feFlood flood-opacity="0" result="BackgroundImageFix"/>
<feGaussianBlur in="BackgroundImageFix" stdDeviation="45.85"/>
<feComposite in2="SourceAlpha" operator="in" result="effect1_backgroundBlur_264_429"/>
<feBlend mode="normal" in="SourceGraphic" in2="effect1_backgroundBlur_264_429" result="shape"/>
</filter>
<filter id="filter2_d_264_429" x="0" y="170" width="131" height="131" filterUnits="userSpaceOnUse" color-interpolation-filters="sRGB">
<feFlood flood-opacity="0" result="BackgroundImageFix"/>
<feColorMatrix in="SourceAlpha" type="matrix" values="0 0 0 0 0 0 0 0 0 0 0 0 0 0 0 0 0 0 127 0" result="hardAlpha"/>
<feMorphology radius="5" operator="dilate" in="SourceAlpha" result="effect1_dropShadow_264_429"/>
<feOffset/>
<feComposite in2="hardAlpha" operator="out"/>
<feColorMatrix type="matrix" values="0 0 0 0 1 0 0 0 0 1 0 0 0 0 1 0 0 0 0.11 0"/>
<feBlend mode="normal" in2="BackgroundImageFix" result="effect1_dropShadow_264_429"/>
<feBlend mode="normal" in="SourceGraphic" in2="effect1_dropShadow_264_429" result="shape"/>
</filter>
<filter id="filter3_d_264_429" x="453" y="313" width="131" height="131" filterUnits="userSpaceOnUse" color-interpolation-filters="sRGB">
<feFlood flood-opacity="0" result="BackgroundImageFix"/>
<feColorMatrix in="SourceAlpha" type="matrix" values="0 0 0 0 0 0 0 0 0 0 0 0 0 0 0 0 0 0 127 0" result="hardAlpha"/>
<feMorphology radius="5" operator="dilate" in="SourceAlpha" result="effect1_dropShadow_264_429"/>
<feOffset/>
<feComposite in2="hardAlpha" operator="out"/>
<feColorMatrix type="matrix" values="0 0 0 0 1 0 0 0 0 1 0 0 0 0 1 0 0 0 0.11 0"/>
<feBlend mode="normal" in2="BackgroundImageFix" result="effect1_dropShadow_264_429"/>
<feBlend mode="normal" in="SourceGraphic" in2="effect1_dropShadow_264_429" result="shape"/>
</filter>
<linearGradient id="paint0_linear_264_429" x1="154.5" y1="-2.79402e-05" x2="668.359" y2="134.741" gradientUnits="userSpaceOnUse">
<stop stop-color="#0084FF"/>
<stop offset="0.438035" stop-color="#FFAB90"/>
<stop offset="1" stop-color="#FD8AC8"/>
</linearGradient>
<linearGradient id="paint1_linear_264_429" x1="107.5" y1="4.99996" x2="445.811" y2="472.068" gradientUnits="userSpaceOnUse">
<stop stop-color="#2D2E48"/>
<stop offset="1" stop-color="white" stop-opacity="0.06"/>
</linearGradient>
<linearGradient id="paint2_linear_264_429" x1="459" y1="96" x2="255.287" y2="489.316" gradientUnits="userSpaceOnUse">
<stop stop-color="#1B1C36"/>
<stop offset="1" stop-color="#00000B"/>
</linearGradient>
<linearGradient id="paint3_linear_264_429" x1="62" y1="395" x2="603.101" y2="258.433" gradientUnits="userSpaceOnUse">
<stop offset="0.362307" stop-color="#2C2D47"/>
<stop offset="1" stop-color="white" stop-opacity="0.07"/>
</linearGradient>
</defs>
</svg>
